G04*
G04 #@! TF.GenerationSoftware,Altium Limited,Altium Designer,23.4.1 (23)*
G04*
G04 Layer_Color=65535*
%FSLAX44Y44*%
%MOMM*%
G71*
G04*
G04 #@! TF.SameCoordinates,78E2F5E2-7EE1-4383-969E-04B009F8C4C8*
G04*
G04*
G04 #@! TF.FilePolarity,Positive*
G04*
G01*
G75*
%ADD10C,0.2000*%
%ADD11C,0.0196*%
%ADD12C,0.4000*%
%ADD13C,0.1000*%
%ADD14C,0.2540*%
%ADD15R,3.8000X0.6001*%
D10*
X676586Y258318D02*
G03*
X676586Y258318I-52000J0D01*
G01*
X785940Y181698D02*
X855940D01*
X785940D02*
Y241698D01*
Y291698D02*
Y341698D01*
X855940D01*
X356Y344988D02*
X75356D01*
X356Y224988D02*
Y344988D01*
Y224988D02*
X32356D01*
X75356D01*
Y344988D01*
X500614Y216810D02*
Y298810D01*
X434614Y216810D02*
X500614D01*
X434614D02*
Y298810D01*
X500614D01*
X493614Y277810D02*
Y290810D01*
Y224310D02*
Y237310D01*
X487114Y230810D02*
X500114D01*
X640586Y288318D02*
Y302318D01*
X633586Y295318D02*
X647586D01*
X748076Y229048D02*
X754076D01*
Y285048D01*
X748076D02*
X754076D01*
X716076Y229048D02*
X722076D01*
X716076D02*
Y285048D01*
X722076D01*
D11*
X838385Y88886D02*
X838974D01*
X942610D02*
X943395D01*
X802466Y88690D02*
X804821D01*
X836618D02*
X840544D01*
X895895D02*
X911598D01*
X941236D02*
X944966D01*
X801484Y88494D02*
X805802D01*
X836030D02*
X841133D01*
X894914D02*
X912579D01*
X940451D02*
X945947D01*
X800699Y88298D02*
X806587D01*
X835244D02*
X841722D01*
X894325D02*
X913168D01*
X940059D02*
X946536D01*
X800306Y88101D02*
X806980D01*
X834852D02*
X842114D01*
X893736D02*
X913757D01*
X939470D02*
X946928D01*
X799914Y87905D02*
X807569D01*
X834459D02*
X842703D01*
X893147D02*
X914149D01*
X939077D02*
X947321D01*
X799325Y87709D02*
X807961D01*
X834067D02*
X843096D01*
X892755D02*
X914542D01*
X938685D02*
X947714D01*
X799129Y87512D02*
X808158D01*
X833870D02*
X843292D01*
X892362D02*
X914935D01*
X938488D02*
X947910D01*
X798736Y87316D02*
X808550D01*
X833478D02*
X843684D01*
X892166D02*
X915131D01*
X938096D02*
X948302D01*
X798540Y87120D02*
X808746D01*
X833282D02*
X843881D01*
X891970D02*
X915523D01*
X937899D02*
X948499D01*
X798147Y86924D02*
X809139D01*
X832889D02*
X844077D01*
X891577D02*
X915720D01*
X937507D02*
X948891D01*
X797951Y86727D02*
X809335D01*
X832693D02*
X844470D01*
X891381D02*
X916112D01*
X937311D02*
X949088D01*
X797755Y86531D02*
X809532D01*
X832496D02*
X844666D01*
X891185D02*
X916309D01*
X937114D02*
X949284D01*
X797558Y86335D02*
X809728D01*
X832300D02*
X844862D01*
X890792D02*
X916505D01*
X936918D02*
X949480D01*
X797362Y86138D02*
X810120D01*
X832104D02*
X845059D01*
X890596D02*
X916701D01*
X936722D02*
X949676D01*
X797166Y85942D02*
X810317D01*
X831908D02*
X845255D01*
X890399D02*
X916897D01*
X936525D02*
X949873D01*
X796970Y85746D02*
X810513D01*
X831711D02*
X845451D01*
X890203D02*
X917094D01*
X936329D02*
X950069D01*
X796773Y85550D02*
X810709D01*
X831515D02*
X845647D01*
X890007D02*
X917290D01*
X936133D02*
X950265D01*
X796577Y85353D02*
X810709D01*
X831319D02*
X845844D01*
X889811D02*
X917486D01*
X935937D02*
X950462D01*
X796381Y85157D02*
X811102D01*
X831123D02*
X846040D01*
X889614D02*
X917682D01*
X935740D02*
X950658D01*
X796184Y84961D02*
X811298D01*
X830926D02*
X846236D01*
X889418D02*
X917879D01*
X935544D02*
X950854D01*
X795988Y84764D02*
X811494D01*
X830730D02*
X846432D01*
X889222D02*
X918075D01*
X935348D02*
X951050D01*
X795792Y84568D02*
X811691D01*
X830534D02*
X846629D01*
X889025D02*
X918271D01*
X935152D02*
X951247D01*
X795596Y84372D02*
X811887D01*
X830337D02*
X846825D01*
X888829D02*
X918468D01*
X934955D02*
X951443D01*
X795399Y84176D02*
X812083D01*
X830141D02*
X847021D01*
X888633D02*
X918664D01*
X934759D02*
X951639D01*
X795203Y83979D02*
X812280D01*
X829945D02*
X847218D01*
X888437D02*
X918860D01*
X934563D02*
X951835D01*
X795007Y83783D02*
X812280D01*
X829749D02*
X847414D01*
X888240D02*
X919056D01*
X934367D02*
X952032D01*
X794810Y83587D02*
X812672D01*
X829552D02*
X847610D01*
X888044D02*
X919253D01*
X934170D02*
X952228D01*
X794614Y83391D02*
X812868D01*
X829356D02*
X847806D01*
X887848D02*
X919449D01*
X933974D02*
X952424D01*
X794418Y83194D02*
X813065D01*
X829160D02*
X848003D01*
X887652D02*
X919645D01*
X933778D02*
X952621D01*
X794222Y82998D02*
X813261D01*
X828963D02*
X848199D01*
X887455D02*
X919842D01*
X933581D02*
X952817D01*
X794025Y82802D02*
X813457D01*
X828767D02*
X848395D01*
X887259D02*
X920038D01*
X933385D02*
X953013D01*
X793829Y82605D02*
X813653D01*
X828571D02*
X848592D01*
X887063D02*
X920234D01*
X933189D02*
X953209D01*
X793633Y82409D02*
X813850D01*
X828375D02*
X848788D01*
X886866D02*
X920431D01*
X932992D02*
X953406D01*
X793437Y82213D02*
X813850D01*
X828178D02*
X848984D01*
X886670D02*
X920627D01*
X932796D02*
X953602D01*
X793240Y82016D02*
X814242D01*
X827982D02*
X849180D01*
X886474D02*
X920823D01*
X932600D02*
X953798D01*
X793044Y81820D02*
X814439D01*
X827786D02*
X849377D01*
X886278D02*
X921019D01*
X932404D02*
X953995D01*
X792848Y81624D02*
X814635D01*
X827589D02*
X849573D01*
X886081D02*
X921216D01*
X932207D02*
X954191D01*
X792651Y81428D02*
X814831D01*
X827393D02*
X849769D01*
X885885D02*
X921412D01*
X932011D02*
X954387D01*
X792455Y81231D02*
X815027D01*
X827197D02*
X849966D01*
X885689D02*
X921608D01*
X931815D02*
X954583D01*
X792063Y81035D02*
X815224D01*
X827001D02*
X850162D01*
X885492D02*
X921805D01*
X931618D02*
X954780D01*
X792063Y80839D02*
X815420D01*
X826804D02*
X850358D01*
X885296D02*
X922001D01*
X931422D02*
X954976D01*
X791866Y80642D02*
X815616D01*
X826608D02*
X850554D01*
X885100D02*
X922197D01*
X931226D02*
X955172D01*
X791474Y80446D02*
X815813D01*
X826412D02*
X850751D01*
X884904D02*
X922393D01*
X931030D02*
X955368D01*
X791474Y80250D02*
X816009D01*
X826216D02*
X850947D01*
X884707D02*
X922590D01*
X930833D02*
X955565D01*
X791081Y80054D02*
X816205D01*
X826019D02*
X851143D01*
X884511D02*
X922786D01*
X930637D02*
X955761D01*
X790885Y79857D02*
X816401D01*
X825823D02*
X851339D01*
X884315D02*
X922982D01*
X930441D02*
X942806D01*
X943003D02*
X955957D01*
X790689Y79661D02*
X803054D01*
X803447D02*
X816598D01*
X825627D02*
X837992D01*
X838385D02*
X851536D01*
X884118D02*
X896484D01*
X896877D02*
X897073D01*
X910028D02*
X923178D01*
X930245D02*
X942610D01*
X943199D02*
X956154D01*
X790492Y79465D02*
X802858D01*
X803839D02*
X816794D01*
X825430D02*
X837796D01*
X838581D02*
X851732D01*
X883922D02*
X896288D01*
X910224D02*
X923375D01*
X930048D02*
X942414D01*
X943395D02*
X956350D01*
X790296Y79269D02*
X802662D01*
X803839D02*
X816990D01*
X825234D02*
X837600D01*
X838974D02*
X851928D01*
X883726D02*
X896092D01*
X910420D02*
X923571D01*
X929852D02*
X942218D01*
X943592D02*
X956546D01*
X790296Y79072D02*
X802466D01*
X804232D02*
X817187D01*
X825038D02*
X837403D01*
X838974D02*
X852125D01*
X883530D02*
X895895D01*
X910813D02*
X923767D01*
X929656D02*
X942021D01*
X943788D02*
X956742D01*
X789903Y78876D02*
X802269D01*
X804428D02*
X817383D01*
X824842D02*
X837011D01*
X839170D02*
X852321D01*
X883333D02*
X895699D01*
X911009D02*
X923964D01*
X929459D02*
X941825D01*
X943984D02*
X956939D01*
X789707Y78680D02*
X802073D01*
X804625D02*
X817579D01*
X824645D02*
X836815D01*
X839366D02*
X852517D01*
X883137D02*
X895503D01*
X911205D02*
X924160D01*
X929263D02*
X941629D01*
X944181D02*
X957135D01*
X789511Y78484D02*
X801877D01*
X804821D02*
X817775D01*
X824449D02*
X836618D01*
X839563D02*
X852713D01*
X882941D02*
X895306D01*
X911205D02*
X924356D01*
X929067D02*
X941433D01*
X944377D02*
X957331D01*
X789315Y78287D02*
X801680D01*
X805017D02*
X817972D01*
X824253D02*
X836422D01*
X839759D02*
X852910D01*
X882745D02*
X895110D01*
X911402D02*
X924552D01*
X928871D02*
X941040D01*
X944573D02*
X957528D01*
X789118Y78091D02*
X801484D01*
X805213D02*
X818168D01*
X824056D02*
X836226D01*
X839955D02*
X853106D01*
X882548D02*
X894718D01*
X911598D02*
X924749D01*
X928674D02*
X941040D01*
X944769D02*
X957724D01*
X788922Y77895D02*
X801288D01*
X805410D02*
X818364D01*
X823860D02*
X836030D01*
X840152D02*
X853302D01*
X882352D02*
X894718D01*
X911794D02*
X924945D01*
X928478D02*
X940844D01*
X944966D02*
X957920D01*
X788726Y77698D02*
X801092D01*
X805410D02*
X818560D01*
X823664D02*
X835833D01*
X840348D02*
X853499D01*
X882156D02*
X894521D01*
X911990D02*
X925141D01*
X928282D02*
X940647D01*
X945162D02*
X958117D01*
X788530Y77502D02*
X800895D01*
X805802D02*
X818757D01*
X823467D02*
X835637D01*
X840544D02*
X853695D01*
X882156D02*
X894325D01*
X912187D02*
X925338D01*
X928085D02*
X940451D01*
X945358D02*
X958313D01*
X788333Y77306D02*
X800699D01*
X805999D02*
X818953D01*
X823271D02*
X835441D01*
X840740D02*
X853891D01*
X881959D02*
X893932D01*
X912579D02*
X925534D01*
X927889D02*
X940059D01*
X945555D02*
X958509D01*
X788137Y77109D02*
X800503D01*
X806195D02*
X819149D01*
X823075D02*
X835244D01*
X840937D02*
X854087D01*
X881763D02*
X893932D01*
X912579D02*
X925730D01*
X927693D02*
X940059D01*
X945751D02*
X958705D01*
X787941Y76913D02*
X800306D01*
X806391D02*
X819346D01*
X822879D02*
X835048D01*
X841133D02*
X854284D01*
X881567D02*
X893736D01*
X912775D02*
X925926D01*
X927497D02*
X939862D01*
X945947D02*
X958902D01*
X787744Y76717D02*
X800110D01*
X806587D02*
X819542D01*
X822682D02*
X834852D01*
X841329D02*
X854480D01*
X881567D02*
X893540D01*
X912972D02*
X926123D01*
X927300D02*
X939470D01*
X945947D02*
X959098D01*
X787548Y76521D02*
X799914D01*
X806784D02*
X819738D01*
X822486D02*
X834656D01*
X841525D02*
X854676D01*
X881370D02*
X893147D01*
X913168D02*
X926319D01*
X927104D02*
X939470D01*
X946340D02*
X959294D01*
X787352Y76324D02*
X799717D01*
X806980D02*
X819934D01*
X822290D02*
X834459D01*
X841722D02*
X854873D01*
X881174D02*
X893147D01*
X913364D02*
X926319D01*
X926908D02*
X939274D01*
X946536D02*
X959491D01*
X787156Y76128D02*
X799521D01*
X806980D02*
X820131D01*
X822094D02*
X834263D01*
X841918D02*
X855069D01*
X881174D02*
X892951D01*
X913561D02*
X939077D01*
X946536D02*
X959687D01*
X786959Y75932D02*
X799325D01*
X807373D02*
X820327D01*
X821897D02*
X834067D01*
X842114D02*
X855265D01*
X871949D02*
X892755D01*
X913757D02*
X938685D01*
X946928D02*
X959883D01*
X786763Y75736D02*
X799129D01*
X807569D02*
X820523D01*
X821701D02*
X833870D01*
X842310D02*
X855461D01*
X870379D02*
X892362D01*
X913953D02*
X938488D01*
X947125D02*
X960079D01*
X786567Y75539D02*
X798932D01*
X807765D02*
X820720D01*
X821505D02*
X833674D01*
X842507D02*
X855461D01*
X869594D02*
X892362D01*
X914149D02*
X938488D01*
X947321D02*
X960276D01*
X786370Y75343D02*
X798736D01*
X807765D02*
X820916D01*
X821308D02*
X833478D01*
X842703D02*
X855658D01*
X869005D02*
X892166D01*
X914346D02*
X938292D01*
X947321D02*
X960472D01*
X786174Y75147D02*
X798540D01*
X807961D02*
X833282D01*
X842899D02*
X855854D01*
X868416D02*
X891970D01*
X914542D02*
X937899D01*
X947517D02*
X960668D01*
X785978Y74950D02*
X798344D01*
X808354D02*
X833085D01*
X843096D02*
X856050D01*
X868220D02*
X891773D01*
X914738D02*
X937899D01*
X947714D02*
X960864D01*
X785781Y74754D02*
X798147D01*
X808550D02*
X832889D01*
X843292D02*
X856246D01*
X867827D02*
X891577D01*
X914935D02*
X937703D01*
X947910D02*
X961061D01*
X785585Y74558D02*
X797951D01*
X808550D02*
X832693D01*
X843488D02*
X856443D01*
X867434D02*
X891381D01*
X915131D02*
X937507D01*
X948106D02*
X961257D01*
X785389Y74362D02*
X797755D01*
X808943D02*
X832496D01*
X843684D02*
X856639D01*
X867238D02*
X891185D01*
X915327D02*
X937311D01*
X948302D02*
X961257D01*
X785193Y74165D02*
X797558D01*
X809139D02*
X832300D01*
X843881D02*
X856835D01*
X866846D02*
X890792D01*
X915523D02*
X936918D01*
X948695D02*
X961453D01*
X784996Y73969D02*
X797362D01*
X809139D02*
X832104D01*
X844077D02*
X857032D01*
X866649D02*
X890792D01*
X915720D02*
X936722D01*
X948695D02*
X961649D01*
X784800Y73773D02*
X797166D01*
X809335D02*
X831908D01*
X844273D02*
X857228D01*
X866453D02*
X890596D01*
X915916D02*
X936525D01*
X948891D02*
X961846D01*
X784604Y73576D02*
X796970D01*
X809532D02*
X831711D01*
X844470D02*
X857424D01*
X866061D02*
X890399D01*
X916112D02*
X936329D01*
X949088D02*
X962042D01*
X784408Y73380D02*
X796773D01*
X809924D02*
X831515D01*
X844666D02*
X857620D01*
X865864D02*
X890203D01*
X916309D02*
X936329D01*
X949284D02*
X962238D01*
X784211Y73184D02*
X796577D01*
X810120D02*
X831319D01*
X844862D02*
X857817D01*
X865668D02*
X890007D01*
X916505D02*
X935937D01*
X949480D02*
X962435D01*
X784015Y72988D02*
X796381D01*
X810120D02*
X831123D01*
X845059D02*
X858013D01*
X865668D02*
X889811D01*
X916701D02*
X935740D01*
X949676D02*
X962631D01*
X783819Y72791D02*
X796184D01*
X810317D02*
X830926D01*
X845255D02*
X858209D01*
X865472D02*
X889614D01*
X916897D02*
X935740D01*
X949873D02*
X962827D01*
X783622Y72595D02*
X795988D01*
X810709D02*
X830730D01*
X845451D02*
X858406D01*
X865275D02*
X889418D01*
X917094D02*
X935348D01*
X950069D02*
X963024D01*
X783426Y72399D02*
X795792D01*
X810709D02*
X830534D01*
X845647D02*
X858602D01*
X865079D02*
X889222D01*
X917290D02*
X935152D01*
X950265D02*
X963220D01*
X783230Y72202D02*
X795596D01*
X810906D02*
X830337D01*
X845844D02*
X858798D01*
X864883D02*
X889025D01*
X917486D02*
X935152D01*
X950462D02*
X963416D01*
X783034Y72006D02*
X795399D01*
X811298D02*
X830141D01*
X846040D02*
X858994D01*
X864883D02*
X888829D01*
X917682D02*
X934759D01*
X950658D02*
X963612D01*
X782837Y71810D02*
X795203D01*
X811494D02*
X829945D01*
X846236D02*
X859191D01*
X864687D02*
X888633D01*
X917879D02*
X934759D01*
X950854D02*
X963809D01*
X782641Y71614D02*
X795007D01*
X811691D02*
X829749D01*
X846432D02*
X859387D01*
X864490D02*
X888437D01*
X918075D02*
X934367D01*
X951050D02*
X964005D01*
X782445Y71417D02*
X794810D01*
X811691D02*
X829552D01*
X846629D02*
X859583D01*
X864490D02*
X888240D01*
X918271D02*
X934367D01*
X951247D02*
X964201D01*
X782249Y71221D02*
X794614D01*
X811887D02*
X829356D01*
X846825D02*
X859780D01*
X864294D02*
X888437D01*
X918468D02*
X934170D01*
X951443D02*
X964398D01*
X782052Y71025D02*
X794418D01*
X812280D02*
X829160D01*
X847021D02*
X859976D01*
X864294D02*
X888633D01*
X918664D02*
X933778D01*
X951639D02*
X964594D01*
X781856Y70828D02*
X794222D01*
X812476D02*
X828963D01*
X847218D02*
X860172D01*
X864098D02*
X888829D01*
X918860D02*
X933581D01*
X951835D02*
X964790D01*
X781660Y70632D02*
X794025D01*
X812476D02*
X828767D01*
X847414D02*
X860368D01*
X864098D02*
X889025D01*
X919056D02*
X933581D01*
X952032D02*
X964986D01*
X781660Y70436D02*
X793829D01*
X812868D02*
X828571D01*
X847610D02*
X860368D01*
X863902D02*
X889222D01*
X919253D02*
X933385D01*
X952228D02*
X964986D01*
X781463Y70240D02*
X793633D01*
X813065D02*
X828375D01*
X847806D02*
X860565D01*
X863902D02*
X889418D01*
X919449D02*
X933189D01*
X952424D02*
X965183D01*
X781267Y70043D02*
X793437D01*
X813261D02*
X828178D01*
X848003D02*
X860761D01*
X863902D02*
X889614D01*
X919645D02*
X932992D01*
X952621D02*
X965379D01*
X781071Y69847D02*
X793240D01*
X813457D02*
X827982D01*
X848199D02*
X860761D01*
X863705D02*
X889811D01*
X919842D02*
X932600D01*
X952817D02*
X965379D01*
X781071Y69651D02*
X793044D01*
X813653D02*
X827786D01*
X848395D02*
X860957D01*
X863705D02*
X890007D01*
X920038D02*
X932600D01*
X953013D02*
X965575D01*
X780874Y69454D02*
X792848D01*
X813850D02*
X827589D01*
X848592D02*
X860957D01*
X863509D02*
X890203D01*
X903158D02*
X903354D01*
X920234D02*
X932207D01*
X953209D02*
X965771D01*
X780874Y69258D02*
X792651D01*
X813850D02*
X827393D01*
X848788D02*
X861153D01*
X863509D02*
X890399D01*
X903158D02*
X903550D01*
X920431D02*
X932011D01*
X953602D02*
X965771D01*
X780678Y69062D02*
X792455D01*
X814046D02*
X827197D01*
X848984D02*
X861153D01*
X863313D02*
X890596D01*
X903158D02*
X903747D01*
X920627D02*
X932011D01*
X953602D02*
X965968D01*
X780678Y68866D02*
X792259D01*
X814242D02*
X827001D01*
X849180D02*
X861350D01*
X863313D02*
X890792D01*
X903158D02*
X903943D01*
X920823D02*
X931618D01*
X953798D02*
X965968D01*
X780482Y68669D02*
X791866D01*
X814635D02*
X826804D01*
X849377D02*
X861350D01*
X863313D02*
X890988D01*
X903158D02*
X904139D01*
X921019D02*
X931618D01*
X953995D02*
X965968D01*
X780482Y68473D02*
X791866D01*
X814831D02*
X826608D01*
X849573D02*
X861546D01*
X863116D02*
X891185D01*
X903158D02*
X904335D01*
X921216D02*
X931422D01*
X954191D02*
X966164D01*
X780286Y68277D02*
X791670D01*
X814831D02*
X826412D01*
X849769D02*
X861546D01*
X863116D02*
X891381D01*
X903158D02*
X904532D01*
X921412D02*
X931226D01*
X954387D02*
X966164D01*
X780286Y68081D02*
X791474D01*
X815224D02*
X826216D01*
X849966D02*
X861742D01*
X862920D02*
X891577D01*
X903158D02*
X904728D01*
X921608D02*
X931030D01*
X954583D02*
X966360D01*
X780286Y67884D02*
X791277D01*
X815420D02*
X826019D01*
X850162D02*
X861742D01*
X862920D02*
X891773D01*
X903158D02*
X904924D01*
X921805D02*
X930637D01*
X954780D02*
X966360D01*
X780089Y67688D02*
X790885D01*
X815616D02*
X825823D01*
X850358D02*
X861742D01*
X862724D02*
X891970D01*
X903158D02*
X905317D01*
X922001D02*
X930441D01*
X954976D02*
X966360D01*
X780089Y67492D02*
X790689D01*
X798540D02*
X798932D01*
X815616D02*
X825627D01*
X834459D02*
X834852D01*
X850554D02*
X861742D01*
X862724D02*
X892166D01*
X903158D02*
X905513D01*
X922001D02*
X930245D01*
X939274D02*
X939470D01*
X955172D02*
X966360D01*
X780089Y67295D02*
X790492D01*
X798540D02*
X799129D01*
X816009D02*
X825430D01*
X834459D02*
X835048D01*
X850751D02*
X861939D01*
X862527D02*
X892362D01*
X903158D02*
X905709D01*
X922001D02*
X930048D01*
X939077D02*
X939666D01*
X955368D02*
X966557D01*
X780089Y67099D02*
X790296D01*
X798540D02*
X799325D01*
X816205D02*
X825234D01*
X834459D02*
X835244D01*
X850947D02*
X861939D01*
X862527D02*
X892559D01*
X903158D02*
X905906D01*
X922001D02*
X930048D01*
X939274D02*
X939862D01*
X955565D02*
X966557D01*
X779893Y66903D02*
X790100D01*
X798540D02*
X799521D01*
X816401D02*
X825038D01*
X834459D02*
X835441D01*
X851143D02*
X861939D01*
X862527D02*
X871753D01*
X883530D02*
X892755D01*
X903158D02*
X906102D01*
X922001D02*
X929656D01*
X939274D02*
X940059D01*
X955761D02*
X966557D01*
X779893Y66707D02*
X789903D01*
X798540D02*
X799717D01*
X816401D02*
X824842D01*
X834459D02*
X835637D01*
X851339D02*
X861939D01*
X862331D02*
X871753D01*
X883530D02*
X892755D01*
X903158D02*
X906298D01*
X922001D02*
X929459D01*
X939274D02*
X940255D01*
X955957D02*
X966557D01*
X779893Y66510D02*
X789903D01*
X798540D02*
X799717D01*
X816794D02*
X824645D01*
X834459D02*
X835833D01*
X851536D02*
X861939D01*
X862331D02*
X871556D01*
X883530D02*
X892755D01*
X903158D02*
X906495D01*
X922001D02*
X929459D01*
X939274D02*
X940255D01*
X956154D02*
X966557D01*
X779893Y66314D02*
X789511D01*
X798540D02*
X800110D01*
X816990D02*
X824449D01*
X834459D02*
X836030D01*
X851732D02*
X871556D01*
X883333D02*
X892755D01*
X903158D02*
X906691D01*
X922001D02*
X929067D01*
X939274D02*
X940647D01*
X956350D02*
X966753D01*
X779893Y66118D02*
X789315D01*
X798540D02*
X800110D01*
X816990D02*
X824253D01*
X834459D02*
X836226D01*
X851928D02*
X871360D01*
X883333D02*
X892755D01*
X903158D02*
X906887D01*
X922001D02*
X929067D01*
X939274D02*
X940844D01*
X956546D02*
X966753D01*
X779893Y65922D02*
X789118D01*
X798540D02*
X800503D01*
X817383D02*
X824056D01*
X834459D02*
X836422D01*
X852125D02*
X871360D01*
X883333D02*
X892755D01*
X903158D02*
X907083D01*
X922001D02*
X928674D01*
X939274D02*
X941040D01*
X956742D02*
X966753D01*
X779697Y65725D02*
X788922D01*
X798540D02*
X800699D01*
X817383D02*
X824056D01*
X834459D02*
X836618D01*
X852321D02*
X871164D01*
X883137D02*
X892755D01*
X903158D02*
X907280D01*
X922001D02*
X928674D01*
X939274D02*
X941236D01*
X956939D02*
X966753D01*
X779697Y65529D02*
X788726D01*
X798540D02*
X800895D01*
X817383D02*
X824056D01*
X834459D02*
X836815D01*
X852517D02*
X871164D01*
X883137D02*
X892755D01*
X903158D02*
X907476D01*
X922001D02*
X928478D01*
X939274D02*
X941433D01*
X957135D02*
X966753D01*
X779697Y65333D02*
X788530D01*
X798540D02*
X801092D01*
X817383D02*
X824056D01*
X834459D02*
X837011D01*
X852713D02*
X871164D01*
X883137D02*
X892755D01*
X903158D02*
X907672D01*
X922001D02*
X928478D01*
X939274D02*
X941629D01*
X957331D02*
X966753D01*
X779697Y65136D02*
X788333D01*
X798540D02*
X801288D01*
X817383D02*
X824056D01*
X834459D02*
X837207D01*
X852910D02*
X870968D01*
X882941D02*
X892755D01*
X903158D02*
X907868D01*
X922001D02*
X928674D01*
X939274D02*
X941825D01*
X957528D02*
X966753D01*
X779697Y64940D02*
X788137D01*
X798540D02*
X801288D01*
X817383D02*
X824056D01*
X834459D02*
X837207D01*
X853106D02*
X870968D01*
X882941D02*
X892755D01*
X903158D02*
X908065D01*
X922001D02*
X928674D01*
X939274D02*
X942021D01*
X957724D02*
X966753D01*
X779697Y64744D02*
X787941D01*
X798540D02*
X801680D01*
X817383D02*
X824056D01*
X834459D02*
X837403D01*
X852910D02*
X870771D01*
X882941D02*
X892755D01*
X903158D02*
X908261D01*
X922001D02*
X928674D01*
X939274D02*
X942218D01*
X957528D02*
X966753D01*
X779697Y64548D02*
X787941D01*
X798540D02*
X801877D01*
X817383D02*
X824056D01*
X834459D02*
X837796D01*
X852713D02*
X870771D01*
X882745D02*
X892755D01*
X903158D02*
X908457D01*
X922001D02*
X928674D01*
X939274D02*
X942414D01*
X957331D02*
X966753D01*
X779697Y64351D02*
X787941D01*
X798540D02*
X802073D01*
X817383D02*
X824056D01*
X834459D02*
X837992D01*
X852517D02*
X870575D01*
X882745D02*
X892755D01*
X903158D02*
X908654D01*
X922001D02*
X928674D01*
X939274D02*
X942610D01*
X957135D02*
X966753D01*
X779697Y64155D02*
X787941D01*
X798540D02*
X802269D01*
X817383D02*
X824056D01*
X834459D02*
X838189D01*
X852321D02*
X870575D01*
X882548D02*
X892755D01*
X903158D02*
X908850D01*
X922001D02*
X928674D01*
X939274D02*
X942610D01*
X956939D02*
X966753D01*
X779697Y63959D02*
X787941D01*
X798540D02*
X802466D01*
X817383D02*
X824056D01*
X834459D02*
X838385D01*
X852125D02*
X870379D01*
X882548D02*
X892755D01*
X903158D02*
X909046D01*
X922001D02*
X928674D01*
X939274D02*
X942806D01*
X956742D02*
X966753D01*
X779697Y63762D02*
X787941D01*
X798540D02*
X802662D01*
X817383D02*
X824056D01*
X834459D02*
X838581D01*
X851928D02*
X870379D01*
X882548D02*
X892755D01*
X903158D02*
X909242D01*
X922001D02*
X928674D01*
X939274D02*
X943003D01*
X956546D02*
X966557D01*
X779697Y63566D02*
X787941D01*
X798540D02*
X802858D01*
X817383D02*
X824056D01*
X834459D02*
X838777D01*
X851732D02*
X870182D01*
X882352D02*
X892755D01*
X903158D02*
X909635D01*
X922001D02*
X928674D01*
X939274D02*
X943199D01*
X956350D02*
X966557D01*
X779697Y63370D02*
X787941D01*
X798540D02*
X802858D01*
X817383D02*
X824056D01*
X834459D02*
X838777D01*
X851536D02*
X870182D01*
X882352D02*
X892755D01*
X903158D02*
X909635D01*
X922001D02*
X928674D01*
X939274D02*
X943395D01*
X956154D02*
X966557D01*
X779697Y63173D02*
X787941D01*
X798540D02*
X803251D01*
X817383D02*
X824056D01*
X834459D02*
X838974D01*
X851339D02*
X870182D01*
X882156D02*
X892755D01*
X903158D02*
X909831D01*
X922001D02*
X928674D01*
X939274D02*
X943592D01*
X955957D02*
X966557D01*
X779697Y62977D02*
X787941D01*
X798540D02*
X803447D01*
X817383D02*
X824056D01*
X834459D02*
X839366D01*
X851143D02*
X870182D01*
X882156D02*
X892755D01*
X903158D02*
X910028D01*
X922001D02*
X928674D01*
X939274D02*
X943788D01*
X955761D02*
X966557D01*
X779697Y62781D02*
X787941D01*
X798540D02*
X803643D01*
X817383D02*
X824056D01*
X834459D02*
X839366D01*
X850947D02*
X869986D01*
X882156D02*
X892755D01*
X903158D02*
X910224D01*
X922001D02*
X928674D01*
X939274D02*
X943984D01*
X955565D02*
X966360D01*
X779697Y62585D02*
X787941D01*
X798540D02*
X803839D01*
X817383D02*
X824056D01*
X834459D02*
X839563D01*
X850751D02*
X869790D01*
X881959D02*
X892755D01*
X903158D02*
X910420D01*
X922001D02*
X928674D01*
X939274D02*
X944181D01*
X955368D02*
X966360D01*
X779697Y62388D02*
X787941D01*
X798540D02*
X804036D01*
X817383D02*
X824056D01*
X834459D02*
X839759D01*
X850554D02*
X869790D01*
X881959D02*
X892755D01*
X903158D02*
X910616D01*
X922001D02*
X928674D01*
X939274D02*
X944377D01*
X955172D02*
X966164D01*
X779697Y62192D02*
X787941D01*
X798540D02*
X804232D01*
X817383D02*
X824056D01*
X834459D02*
X839955D01*
X850358D02*
X869790D01*
X881959D02*
X892755D01*
X903158D02*
X911009D01*
X922001D02*
X928674D01*
X939274D02*
X944573D01*
X954976D02*
X966164D01*
X779697Y61996D02*
X787941D01*
X798540D02*
X804428D01*
X817383D02*
X824056D01*
X834459D02*
X840348D01*
X850162D02*
X869594D01*
X881763D02*
X892755D01*
X903158D02*
X911205D01*
X922001D02*
X928674D01*
X939274D02*
X944769D01*
X954780D02*
X966164D01*
X779697Y61800D02*
X787941D01*
X798540D02*
X804428D01*
X817383D02*
X824056D01*
X834459D02*
X840348D01*
X849966D02*
X869594D01*
X881763D02*
X892755D01*
X903158D02*
X911205D01*
X922001D02*
X928674D01*
X939274D02*
X944966D01*
X954583D02*
X966164D01*
X779697Y61603D02*
X787941D01*
X798540D02*
X804821D01*
X817383D02*
X824056D01*
X834459D02*
X840544D01*
X849769D02*
X869397D01*
X881763D02*
X892755D01*
X903158D02*
X911402D01*
X922001D02*
X928674D01*
X939274D02*
X945162D01*
X954387D02*
X965968D01*
X779697Y61407D02*
X787941D01*
X798540D02*
X805017D01*
X817383D02*
X824056D01*
X834459D02*
X840740D01*
X849573D02*
X869397D01*
X881567D02*
X892755D01*
X903158D02*
X911402D01*
X922001D02*
X928674D01*
X939274D02*
X945358D01*
X954191D02*
X965968D01*
X779697Y61211D02*
X787941D01*
X798540D02*
X805213D01*
X817383D02*
X824056D01*
X834459D02*
X840937D01*
X849377D02*
X869201D01*
X881567D02*
X892755D01*
X903158D02*
X911402D01*
X922001D02*
X928674D01*
X939274D02*
X945555D01*
X953995D02*
X965771D01*
X779697Y61014D02*
X787941D01*
X798540D02*
X805410D01*
X817383D02*
X824056D01*
X834459D02*
X841133D01*
X849180D02*
X869201D01*
X881370D02*
X892755D01*
X903158D02*
X911402D01*
X922001D02*
X928674D01*
X939274D02*
X945751D01*
X953798D02*
X965771D01*
X779697Y60818D02*
X787941D01*
X798540D02*
X805606D01*
X817383D02*
X824056D01*
X834459D02*
X841329D01*
X848984D02*
X869201D01*
X881370D02*
X892755D01*
X903158D02*
X911402D01*
X922001D02*
X928674D01*
X939274D02*
X945947D01*
X953602D02*
X965575D01*
X779697Y60622D02*
X787941D01*
X798540D02*
X805802D01*
X817383D02*
X824056D01*
X834459D02*
X841525D01*
X848788D02*
X869005D01*
X881370D02*
X892755D01*
X903158D02*
X911402D01*
X922001D02*
X928674D01*
X939274D02*
X946143D01*
X953406D02*
X965379D01*
X779697Y60426D02*
X787941D01*
X798540D02*
X805999D01*
X817383D02*
X824056D01*
X834459D02*
X841722D01*
X848395D02*
X869005D01*
X881174D02*
X892755D01*
X903158D02*
X911402D01*
X922001D02*
X928674D01*
X939274D02*
X946340D01*
X953209D02*
X965379D01*
X779697Y60229D02*
X787941D01*
X798540D02*
X805999D01*
X817383D02*
X824056D01*
X834459D02*
X841918D01*
X848395D02*
X868809D01*
X881174D02*
X892755D01*
X903158D02*
X911402D01*
X922001D02*
X928674D01*
X939274D02*
X946536D01*
X953013D02*
X965183D01*
X779697Y60033D02*
X787941D01*
X798540D02*
X806391D01*
X817383D02*
X824056D01*
X834459D02*
X842114D01*
X848003D02*
X868809D01*
X880978D02*
X892755D01*
X903158D02*
X911402D01*
X922001D02*
X928674D01*
X939274D02*
X946732D01*
X952817D02*
X965183D01*
X779697Y59837D02*
X787941D01*
X798540D02*
X806587D01*
X817383D02*
X824056D01*
X834459D02*
X842310D01*
X848003D02*
X868612D01*
X880978D02*
X892755D01*
X903158D02*
X911402D01*
X922001D02*
X928674D01*
X939274D02*
X946928D01*
X952621D02*
X964986D01*
X779697Y59640D02*
X787941D01*
X798540D02*
X806784D01*
X817383D02*
X824056D01*
X834459D02*
X842507D01*
X847806D02*
X868612D01*
X880978D02*
X892755D01*
X903158D02*
X911402D01*
X922001D02*
X928674D01*
X939274D02*
X947125D01*
X952424D02*
X964790D01*
X779697Y59444D02*
X787941D01*
X798540D02*
X806784D01*
X817383D02*
X824056D01*
X834459D02*
X842703D01*
X847610D02*
X868612D01*
X880782D02*
X892755D01*
X903158D02*
X911402D01*
X922001D02*
X928674D01*
X939274D02*
X947321D01*
X952228D02*
X964594D01*
X779697Y59248D02*
X787941D01*
X798540D02*
X806784D01*
X817383D02*
X824056D01*
X834459D02*
X842899D01*
X847218D02*
X868416D01*
X880782D02*
X892755D01*
X903158D02*
X911402D01*
X922001D02*
X928674D01*
X939274D02*
X947517D01*
X952032D02*
X964398D01*
X779697Y59052D02*
X787941D01*
X798540D02*
X806784D01*
X817383D02*
X824056D01*
X834459D02*
X843096D01*
X847021D02*
X868416D01*
X880782D02*
X892755D01*
X903158D02*
X911402D01*
X922001D02*
X928674D01*
X939274D02*
X947714D01*
X951835D02*
X964398D01*
X779697Y58855D02*
X787941D01*
X798540D02*
X806784D01*
X817383D02*
X824056D01*
X834459D02*
X843292D01*
X846825D02*
X868220D01*
X880585D02*
X892755D01*
X903158D02*
X911402D01*
X922001D02*
X928674D01*
X939274D02*
X947910D01*
X951639D02*
X964005D01*
X779697Y58659D02*
X787941D01*
X798540D02*
X806784D01*
X817383D02*
X824056D01*
X834459D02*
X843488D01*
X846825D02*
X868220D01*
X880585D02*
X892755D01*
X903158D02*
X911402D01*
X922001D02*
X928674D01*
X939274D02*
X948106D01*
X951443D02*
X964005D01*
X779697Y58463D02*
X787941D01*
X798540D02*
X806784D01*
X817383D02*
X824056D01*
X834459D02*
X843684D01*
X846629D02*
X868023D01*
X880389D02*
X892755D01*
X903158D02*
X911402D01*
X922001D02*
X928674D01*
X939274D02*
X948302D01*
X951247D02*
X963612D01*
X779697Y58267D02*
X787941D01*
X798540D02*
X806784D01*
X817383D02*
X824056D01*
X834459D02*
X843881D01*
X846236D02*
X868023D01*
X880389D02*
X892755D01*
X903158D02*
X911402D01*
X922001D02*
X928674D01*
X939274D02*
X948499D01*
X951050D02*
X963612D01*
X779697Y58070D02*
X787941D01*
X798540D02*
X806784D01*
X817383D02*
X824056D01*
X834459D02*
X844077D01*
X846040D02*
X867827D01*
X880389D02*
X892755D01*
X903158D02*
X911402D01*
X922001D02*
X928674D01*
X939274D02*
X948695D01*
X950854D02*
X963416D01*
X779697Y57874D02*
X787941D01*
X798540D02*
X806784D01*
X817383D02*
X824056D01*
X834459D02*
X844273D01*
X845844D02*
X867827D01*
X880389D02*
X892755D01*
X903158D02*
X911402D01*
X922001D02*
X928674D01*
X939274D02*
X948891D01*
X950658D02*
X963024D01*
X779697Y57678D02*
X787941D01*
X798540D02*
X806784D01*
X817383D02*
X824056D01*
X834459D02*
X844470D01*
X845647D02*
X867827D01*
X880193D02*
X892755D01*
X903158D02*
X911402D01*
X922001D02*
X928674D01*
X939274D02*
X949088D01*
X950462D02*
X962827D01*
X779697Y57481D02*
X787941D01*
X798540D02*
X806784D01*
X817383D02*
X824056D01*
X834459D02*
X844666D01*
X845451D02*
X867631D01*
X880193D02*
X892755D01*
X903158D02*
X911402D01*
X922001D02*
X928674D01*
X939274D02*
X949284D01*
X950265D02*
X962631D01*
X779697Y57285D02*
X787941D01*
X798540D02*
X806784D01*
X817383D02*
X824056D01*
X834459D02*
X844862D01*
X845255D02*
X867631D01*
X879996D02*
X892755D01*
X903158D02*
X911402D01*
X922001D02*
X928674D01*
X939274D02*
X949480D01*
X949873D02*
X962435D01*
X779697Y57089D02*
X787941D01*
X798540D02*
X806784D01*
X817383D02*
X824056D01*
X834459D02*
X867434D01*
X879996D02*
X892755D01*
X903158D02*
X911402D01*
X922001D02*
X928674D01*
X939274D02*
X962238D01*
X779697Y56892D02*
X787941D01*
X798540D02*
X806784D01*
X817383D02*
X824056D01*
X834459D02*
X867434D01*
X879996D02*
X892755D01*
X903158D02*
X911402D01*
X922001D02*
X928674D01*
X939274D02*
X962042D01*
X779697Y56696D02*
X787941D01*
X798540D02*
X806784D01*
X817383D02*
X824056D01*
X834459D02*
X867238D01*
X879800D02*
X892755D01*
X903158D02*
X911402D01*
X922001D02*
X928674D01*
X939274D02*
X961846D01*
X779697Y56500D02*
X787941D01*
X798540D02*
X806784D01*
X817383D02*
X824056D01*
X834459D02*
X867238D01*
X879800D02*
X892755D01*
X903158D02*
X911402D01*
X922001D02*
X928674D01*
X939274D02*
X961649D01*
X779697Y56304D02*
X787941D01*
X798540D02*
X806784D01*
X817383D02*
X824056D01*
X834459D02*
X867042D01*
X879800D02*
X892755D01*
X903158D02*
X911402D01*
X922001D02*
X928674D01*
X939274D02*
X961453D01*
X779697Y56107D02*
X787941D01*
X798540D02*
X806784D01*
X817383D02*
X824056D01*
X834459D02*
X867042D01*
X879604D02*
X892755D01*
X903158D02*
X911402D01*
X922001D02*
X928674D01*
X939274D02*
X961257D01*
X779697Y55911D02*
X787941D01*
X798540D02*
X806784D01*
X817383D02*
X824056D01*
X834459D02*
X867042D01*
X879604D02*
X892755D01*
X903158D02*
X911402D01*
X922001D02*
X928674D01*
X939274D02*
X961061D01*
X779697Y55715D02*
X787941D01*
X798540D02*
X806784D01*
X817383D02*
X824056D01*
X834459D02*
X866846D01*
X879408D02*
X892755D01*
X903158D02*
X911402D01*
X922001D02*
X928674D01*
X939274D02*
X960864D01*
X779697Y55519D02*
X787941D01*
X798540D02*
X806784D01*
X817383D02*
X824056D01*
X834459D02*
X866846D01*
X879408D02*
X892755D01*
X903158D02*
X911402D01*
X922001D02*
X928674D01*
X939274D02*
X960668D01*
X779697Y55322D02*
X787941D01*
X798540D02*
X806784D01*
X817383D02*
X824056D01*
X834459D02*
X866649D01*
X879408D02*
X892755D01*
X903158D02*
X911402D01*
X922001D02*
X928674D01*
X939274D02*
X960472D01*
X779697Y55126D02*
X787941D01*
X798540D02*
X806784D01*
X817383D02*
X824056D01*
X834459D02*
X866649D01*
X879211D02*
X892755D01*
X903158D02*
X911402D01*
X922001D02*
X928674D01*
X939274D02*
X960276D01*
X779697Y54930D02*
X787941D01*
X798540D02*
X806784D01*
X817383D02*
X824056D01*
X834459D02*
X866453D01*
X879211D02*
X892755D01*
X903158D02*
X911402D01*
X922001D02*
X928674D01*
X939274D02*
X960079D01*
X779697Y54733D02*
X787941D01*
X798540D02*
X806784D01*
X817383D02*
X824056D01*
X834459D02*
X866453D01*
X879211D02*
X892755D01*
X903158D02*
X911402D01*
X922001D02*
X928674D01*
X939274D02*
X959883D01*
X779697Y54537D02*
X787941D01*
X798540D02*
X806784D01*
X817383D02*
X824056D01*
X834459D02*
X866453D01*
X879015D02*
X892755D01*
X903158D02*
X911402D01*
X922001D02*
X928674D01*
X939274D02*
X959687D01*
X779697Y54341D02*
X787941D01*
X798540D02*
X806784D01*
X817383D02*
X824056D01*
X834459D02*
X866257D01*
X879015D02*
X892755D01*
X903158D02*
X911402D01*
X922001D02*
X928674D01*
X939274D02*
X959491D01*
X779697Y54145D02*
X787941D01*
X798540D02*
X806784D01*
X817383D02*
X824056D01*
X834459D02*
X866257D01*
X878819D02*
X892755D01*
X903158D02*
X911402D01*
X922001D02*
X928674D01*
X939274D02*
X959294D01*
X779697Y53948D02*
X787941D01*
X798540D02*
X806784D01*
X817383D02*
X824056D01*
X834459D02*
X866061D01*
X878819D02*
X892755D01*
X903158D02*
X911402D01*
X922001D02*
X928674D01*
X939274D02*
X959098D01*
X779697Y53752D02*
X787941D01*
X798540D02*
X806784D01*
X817383D02*
X824056D01*
X834459D02*
X866061D01*
X878819D02*
X892755D01*
X903158D02*
X911402D01*
X922001D02*
X928674D01*
X939274D02*
X958902D01*
X779697Y53556D02*
X787941D01*
X798540D02*
X806784D01*
X817383D02*
X824056D01*
X834459D02*
X866061D01*
X878623D02*
X892755D01*
X903158D02*
X911402D01*
X922001D02*
X928674D01*
X939274D02*
X958705D01*
X779697Y53359D02*
X787941D01*
X798540D02*
X806784D01*
X817383D02*
X824056D01*
X834459D02*
X865864D01*
X878623D02*
X892755D01*
X903158D02*
X911402D01*
X922001D02*
X928674D01*
X939274D02*
X958509D01*
X779697Y53163D02*
X787941D01*
X798540D02*
X806784D01*
X817383D02*
X824056D01*
X834459D02*
X865668D01*
X878623D02*
X892755D01*
X903158D02*
X911402D01*
X922001D02*
X928674D01*
X939274D02*
X958313D01*
X779697Y52967D02*
X787941D01*
X798540D02*
X806784D01*
X817383D02*
X824056D01*
X834459D02*
X865668D01*
X878426D02*
X892755D01*
X903158D02*
X911402D01*
X922001D02*
X928674D01*
X939274D02*
X958117D01*
X779697Y52771D02*
X787941D01*
X798540D02*
X806784D01*
X817383D02*
X824056D01*
X834459D02*
X865668D01*
X878426D02*
X892755D01*
X903158D02*
X911402D01*
X922001D02*
X928674D01*
X939274D02*
X957920D01*
X779697Y52574D02*
X787941D01*
X798540D02*
X806784D01*
X817383D02*
X824056D01*
X834459D02*
X865472D01*
X878426D02*
X892755D01*
X903158D02*
X911402D01*
X922001D02*
X928674D01*
X939274D02*
X957724D01*
X779697Y52378D02*
X787941D01*
X798540D02*
X806784D01*
X817383D02*
X824056D01*
X834459D02*
X865472D01*
X878230D02*
X892755D01*
X903158D02*
X911402D01*
X922001D02*
X928674D01*
X939274D02*
X957528D01*
X779697Y52182D02*
X787941D01*
X798540D02*
X806784D01*
X817383D02*
X824056D01*
X834459D02*
X865275D01*
X878230D02*
X892755D01*
X903158D02*
X911402D01*
X922001D02*
X928674D01*
X939274D02*
X957331D01*
X779697Y51986D02*
X787941D01*
X798540D02*
X806784D01*
X817383D02*
X824056D01*
X834459D02*
X865275D01*
X878034D02*
X892755D01*
X903158D02*
X911402D01*
X922001D02*
X928674D01*
X939274D02*
X957135D01*
X779697Y51789D02*
X787941D01*
X798540D02*
X806784D01*
X817383D02*
X824056D01*
X834459D02*
X865275D01*
X878034D02*
X892755D01*
X903158D02*
X911402D01*
X922001D02*
X928674D01*
X939274D02*
X956939D01*
X779697Y51593D02*
X787941D01*
X798540D02*
X806784D01*
X817383D02*
X824056D01*
X834459D02*
X865079D01*
X878034D02*
X892755D01*
X903158D02*
X911402D01*
X922001D02*
X928674D01*
X939274D02*
X956742D01*
X779697Y51397D02*
X787941D01*
X798540D02*
X806784D01*
X817383D02*
X824056D01*
X834459D02*
X865079D01*
X877838D02*
X892755D01*
X903158D02*
X911402D01*
X922001D02*
X928674D01*
X939274D02*
X956546D01*
X779697Y51200D02*
X787941D01*
X798540D02*
X806784D01*
X817383D02*
X824056D01*
X834459D02*
X864883D01*
X877838D02*
X892755D01*
X903158D02*
X911402D01*
X922001D02*
X928674D01*
X939274D02*
X956350D01*
X779697Y51004D02*
X787941D01*
X798540D02*
X806784D01*
X817383D02*
X824056D01*
X834459D02*
X864883D01*
X877838D02*
X892755D01*
X903158D02*
X911402D01*
X922001D02*
X928674D01*
X939274D02*
X956154D01*
X779697Y50808D02*
X787941D01*
X798540D02*
X806784D01*
X817383D02*
X824056D01*
X834459D02*
X864883D01*
X877641D02*
X892755D01*
X903158D02*
X911402D01*
X922001D02*
X928674D01*
X939274D02*
X955957D01*
X779697Y50612D02*
X787941D01*
X798540D02*
X806784D01*
X817383D02*
X824056D01*
X834459D02*
X864687D01*
X877641D02*
X892755D01*
X903158D02*
X911402D01*
X922001D02*
X928674D01*
X939274D02*
X955565D01*
X779697Y50415D02*
X787941D01*
X798540D02*
X806784D01*
X817383D02*
X824056D01*
X834459D02*
X864687D01*
X877641D02*
X892755D01*
X903158D02*
X911402D01*
X922001D02*
X928674D01*
X939274D02*
X955368D01*
X779697Y50219D02*
X787941D01*
X798540D02*
X806784D01*
X817383D02*
X824056D01*
X834459D02*
X864490D01*
X877445D02*
X892755D01*
X903158D02*
X911402D01*
X922001D02*
X928674D01*
X939274D02*
X954976D01*
X779697Y50023D02*
X787941D01*
X798540D02*
X806784D01*
X817383D02*
X824056D01*
X834459D02*
X864490D01*
X877445D02*
X892755D01*
X903158D02*
X911402D01*
X922001D02*
X928674D01*
X939274D02*
X954780D01*
X779697Y49826D02*
X787941D01*
X798540D02*
X806784D01*
X817383D02*
X824056D01*
X834459D02*
X864294D01*
X877249D02*
X892755D01*
X903158D02*
X911402D01*
X922001D02*
X928674D01*
X939274D02*
X954387D01*
X779697Y49630D02*
X787941D01*
X798540D02*
X806784D01*
X817383D02*
X824056D01*
X834459D02*
X864294D01*
X877445D02*
X884904D01*
X885492D02*
X886278D01*
X886670D02*
X892755D01*
X903158D02*
X911402D01*
X922001D02*
X928674D01*
X939274D02*
X953995D01*
X779697Y49434D02*
X787941D01*
X798540D02*
X806784D01*
X817383D02*
X824056D01*
X834459D02*
X864098D01*
X886670D02*
X892755D01*
X903158D02*
X911402D01*
X922001D02*
X928674D01*
X939274D02*
X953602D01*
X779697Y49237D02*
X787941D01*
X798540D02*
X806784D01*
X817383D02*
X824056D01*
X834459D02*
X864098D01*
X886474D02*
X892755D01*
X903158D02*
X911402D01*
X922001D02*
X928674D01*
X939274D02*
X953013D01*
X779697Y49041D02*
X787941D01*
X798540D02*
X806784D01*
X817383D02*
X824056D01*
X834459D02*
X863902D01*
X886278D02*
X892755D01*
X903158D02*
X911402D01*
X922001D02*
X928674D01*
X939274D02*
X952424D01*
X779697Y48845D02*
X787941D01*
X798540D02*
X806784D01*
X817383D02*
X824056D01*
X834459D02*
X863902D01*
X886278D02*
X892755D01*
X903158D02*
X911402D01*
X922001D02*
X928674D01*
X939274D02*
X951247D01*
X779697Y48649D02*
X787941D01*
X798540D02*
X806784D01*
X817383D02*
X824056D01*
X834459D02*
X863902D01*
X886081D02*
X892755D01*
X903158D02*
X911402D01*
X922001D02*
X928674D01*
X939274D02*
X948499D01*
X779697Y48452D02*
X787941D01*
X798540D02*
X806784D01*
X817383D02*
X824056D01*
X834459D02*
X863705D01*
X885885D02*
X892755D01*
X903158D02*
X911402D01*
X922001D02*
X928674D01*
X939274D02*
X948499D01*
X779697Y48256D02*
X787941D01*
X798540D02*
X806784D01*
X817383D02*
X824056D01*
X834459D02*
X863705D01*
X885689D02*
X892755D01*
X903158D02*
X911402D01*
X922001D02*
X928674D01*
X939274D02*
X948499D01*
X779697Y48060D02*
X787941D01*
X798540D02*
X806784D01*
X817383D02*
X824056D01*
X834459D02*
X863509D01*
X885689D02*
X892755D01*
X903158D02*
X911402D01*
X922001D02*
X928674D01*
X939274D02*
X948499D01*
X779697Y47864D02*
X787941D01*
X798540D02*
X806784D01*
X817383D02*
X824056D01*
X834459D02*
X863509D01*
X885492D02*
X892755D01*
X903158D02*
X911402D01*
X922001D02*
X928674D01*
X939274D02*
X948499D01*
X779697Y47667D02*
X787941D01*
X798540D02*
X806784D01*
X817383D02*
X824056D01*
X834459D02*
X863509D01*
X885296D02*
X892755D01*
X903158D02*
X911402D01*
X922001D02*
X928674D01*
X939274D02*
X948499D01*
X779697Y47471D02*
X787941D01*
X798540D02*
X806784D01*
X817383D02*
X824056D01*
X834459D02*
X863313D01*
X885296D02*
X892755D01*
X903158D02*
X911402D01*
X922001D02*
X928674D01*
X939274D02*
X948499D01*
X779697Y47275D02*
X787941D01*
X798540D02*
X806784D01*
X817383D02*
X824056D01*
X834459D02*
X863313D01*
X885100D02*
X892755D01*
X903158D02*
X911402D01*
X922001D02*
X928674D01*
X939274D02*
X948499D01*
X779697Y47078D02*
X787941D01*
X798540D02*
X806784D01*
X817383D02*
X824056D01*
X834459D02*
X863116D01*
X884904D02*
X892755D01*
X903158D02*
X911402D01*
X922001D02*
X928674D01*
X939274D02*
X948499D01*
X779697Y46882D02*
X787941D01*
X817383D02*
X824056D01*
X834459D02*
X863116D01*
X884904D02*
X892755D01*
X903158D02*
X911402D01*
X922001D02*
X928674D01*
X939274D02*
X948499D01*
X779697Y46686D02*
X787941D01*
X817383D02*
X824056D01*
X834459D02*
X862920D01*
X884707D02*
X892755D01*
X903158D02*
X911402D01*
X922001D02*
X928674D01*
X939274D02*
X948499D01*
X779697Y46490D02*
X787941D01*
X817383D02*
X824056D01*
X834459D02*
X862920D01*
X884511D02*
X892755D01*
X903158D02*
X911402D01*
X922001D02*
X928674D01*
X939274D02*
X948499D01*
X779697Y46293D02*
X787941D01*
X817383D02*
X824056D01*
X834459D02*
X862724D01*
X884315D02*
X892755D01*
X903158D02*
X911402D01*
X922001D02*
X928674D01*
X939274D02*
X948499D01*
X779697Y46097D02*
X787941D01*
X817383D02*
X824056D01*
X834459D02*
X862724D01*
X884315D02*
X892755D01*
X903158D02*
X911402D01*
X922001D02*
X928674D01*
X939274D02*
X952032D01*
X779697Y45901D02*
X787941D01*
X817383D02*
X824056D01*
X834459D02*
X862527D01*
X884118D02*
X892755D01*
X903158D02*
X911402D01*
X922001D02*
X928674D01*
X939274D02*
X952817D01*
X779697Y45704D02*
X787941D01*
X817383D02*
X824056D01*
X834459D02*
X862527D01*
X883922D02*
X892755D01*
X903158D02*
X911402D01*
X922001D02*
X928674D01*
X939274D02*
X953406D01*
X779697Y45508D02*
X787941D01*
X817383D02*
X824056D01*
X834459D02*
X862527D01*
X883922D02*
X892755D01*
X903158D02*
X911402D01*
X922001D02*
X928674D01*
X939274D02*
X953798D01*
X779697Y45312D02*
X787941D01*
X817383D02*
X824056D01*
X834459D02*
X862331D01*
X883726D02*
X892755D01*
X903158D02*
X911402D01*
X922001D02*
X928674D01*
X939274D02*
X954191D01*
X779697Y45116D02*
X787941D01*
X817383D02*
X824056D01*
X834459D02*
X862331D01*
X883530D02*
X892755D01*
X903158D02*
X911402D01*
X922001D02*
X928674D01*
X939274D02*
X954583D01*
X779697Y44919D02*
X787941D01*
X817383D02*
X824056D01*
X834459D02*
X862135D01*
X883333D02*
X892755D01*
X903158D02*
X911402D01*
X922001D02*
X928674D01*
X939274D02*
X954976D01*
X779697Y44723D02*
X787941D01*
X817383D02*
X824056D01*
X834459D02*
X862135D01*
X883333D02*
X892755D01*
X903158D02*
X911402D01*
X922001D02*
X928674D01*
X939274D02*
X955172D01*
X779697Y44527D02*
X787941D01*
X817383D02*
X824056D01*
X834459D02*
X862135D01*
X883137D02*
X892755D01*
X903158D02*
X911402D01*
X922001D02*
X928674D01*
X939274D02*
X955565D01*
X779697Y44331D02*
X787941D01*
X817383D02*
X824056D01*
X834459D02*
X861939D01*
X882941D02*
X892755D01*
X903158D02*
X911402D01*
X922001D02*
X928674D01*
X939274D02*
X955761D01*
X779697Y44134D02*
X787941D01*
X817383D02*
X824056D01*
X834459D02*
X861939D01*
X882941D02*
X892755D01*
X903158D02*
X911402D01*
X922001D02*
X928674D01*
X939274D02*
X955957D01*
X779697Y43938D02*
X787941D01*
X817383D02*
X824056D01*
X834459D02*
X861742D01*
X882745D02*
X892755D01*
X903158D02*
X911402D01*
X922001D02*
X928674D01*
X939274D02*
X956154D01*
X779697Y43742D02*
X787941D01*
X817383D02*
X824056D01*
X834459D02*
X861742D01*
X882548D02*
X892755D01*
X903158D02*
X911402D01*
X922001D02*
X928674D01*
X939274D02*
X956350D01*
X779697Y43545D02*
X787941D01*
X817383D02*
X824056D01*
X834459D02*
X861546D01*
X882352D02*
X892755D01*
X903158D02*
X911402D01*
X922001D02*
X928674D01*
X939274D02*
X956546D01*
X779697Y43349D02*
X787941D01*
X817383D02*
X824056D01*
X834459D02*
X861546D01*
X882352D02*
X892755D01*
X903158D02*
X911402D01*
X922001D02*
X928674D01*
X939274D02*
X956742D01*
X779697Y43153D02*
X787941D01*
X817383D02*
X824056D01*
X834459D02*
X861350D01*
X882156D02*
X892755D01*
X903158D02*
X911402D01*
X922001D02*
X928674D01*
X939274D02*
X956939D01*
X779697Y42957D02*
X787941D01*
X817383D02*
X824056D01*
X834459D02*
X861350D01*
X881959D02*
X892755D01*
X903158D02*
X911402D01*
X922001D02*
X928674D01*
X939274D02*
X957135D01*
X779697Y42760D02*
X787941D01*
X817383D02*
X824056D01*
X834459D02*
X861153D01*
X881763D02*
X892755D01*
X903158D02*
X911402D01*
X922001D02*
X928674D01*
X939274D02*
X957331D01*
X779697Y42564D02*
X787941D01*
X817383D02*
X824056D01*
X834459D02*
X861153D01*
X881763D02*
X892755D01*
X903158D02*
X911402D01*
X922001D02*
X928674D01*
X939274D02*
X957528D01*
X779697Y42368D02*
X787941D01*
X817383D02*
X824056D01*
X834459D02*
X861153D01*
X881567D02*
X892755D01*
X903158D02*
X911402D01*
X922001D02*
X928674D01*
X939274D02*
X957724D01*
X779697Y42171D02*
X787941D01*
X817383D02*
X824056D01*
X834459D02*
X860957D01*
X881370D02*
X892755D01*
X903158D02*
X911402D01*
X922001D02*
X928674D01*
X939274D02*
X958117D01*
X779697Y41975D02*
X787941D01*
X817383D02*
X824056D01*
X834459D02*
X860957D01*
X881370D02*
X892755D01*
X903158D02*
X911402D01*
X922001D02*
X928674D01*
X939274D02*
X958117D01*
X779697Y41779D02*
X787941D01*
X817383D02*
X824056D01*
X834459D02*
X860761D01*
X881174D02*
X892755D01*
X903158D02*
X911402D01*
X922001D02*
X928674D01*
X939274D02*
X958313D01*
X779697Y41583D02*
X787941D01*
X817383D02*
X824056D01*
X834459D02*
X860761D01*
X880978D02*
X892755D01*
X903158D02*
X911402D01*
X922001D02*
X928674D01*
X939274D02*
X958509D01*
X779697Y41386D02*
X787941D01*
X817383D02*
X824056D01*
X834459D02*
X860761D01*
X880782D02*
X892755D01*
X903158D02*
X911402D01*
X922001D02*
X928674D01*
X939274D02*
X958705D01*
X779697Y41190D02*
X787941D01*
X817383D02*
X824056D01*
X834459D02*
X860565D01*
X880782D02*
X892755D01*
X903158D02*
X911402D01*
X922001D02*
X928674D01*
X939274D02*
X958902D01*
X779697Y40994D02*
X787941D01*
X817383D02*
X824056D01*
X834459D02*
X860565D01*
X880585D02*
X892755D01*
X903158D02*
X911402D01*
X922001D02*
X928674D01*
X939274D02*
X959098D01*
X779697Y40798D02*
X787941D01*
X817383D02*
X824056D01*
X834459D02*
X860368D01*
X880389D02*
X892755D01*
X903158D02*
X911402D01*
X922001D02*
X928674D01*
X939274D02*
X959294D01*
X779697Y40601D02*
X787941D01*
X817383D02*
X824056D01*
X834459D02*
X860368D01*
X880193D02*
X892755D01*
X903158D02*
X911402D01*
X922001D02*
X928674D01*
X939274D02*
X959491D01*
X779697Y40405D02*
X787941D01*
X817383D02*
X824056D01*
X834459D02*
X860172D01*
X880193D02*
X892755D01*
X903158D02*
X911402D01*
X922001D02*
X928674D01*
X939274D02*
X959883D01*
X779697Y40209D02*
X787941D01*
X817383D02*
X824056D01*
X834459D02*
X860172D01*
X879996D02*
X892755D01*
X903158D02*
X911402D01*
X922001D02*
X928674D01*
X939274D02*
X959883D01*
X779697Y40012D02*
X787941D01*
X817383D02*
X824056D01*
X834459D02*
X859976D01*
X879800D02*
X892755D01*
X903158D02*
X911402D01*
X922001D02*
X928674D01*
X939274D02*
X960079D01*
X779697Y39816D02*
X787941D01*
X817383D02*
X824056D01*
X834459D02*
X859976D01*
X879800D02*
X892755D01*
X903158D02*
X911402D01*
X922001D02*
X928674D01*
X939274D02*
X960472D01*
X779697Y39620D02*
X787941D01*
X817383D02*
X824056D01*
X834459D02*
X859780D01*
X879604D02*
X892755D01*
X903158D02*
X911402D01*
X922001D02*
X928674D01*
X939274D02*
X960668D01*
X779697Y39423D02*
X787941D01*
X817383D02*
X824056D01*
X834459D02*
X859780D01*
X879408D02*
X892755D01*
X903158D02*
X911402D01*
X922001D02*
X928674D01*
X939274D02*
X960864D01*
X779697Y39227D02*
X787941D01*
X817383D02*
X824056D01*
X834459D02*
X859780D01*
X879211D02*
X892755D01*
X903158D02*
X911402D01*
X922001D02*
X928674D01*
X939274D02*
X960864D01*
X779697Y39031D02*
X787941D01*
X817383D02*
X824056D01*
X834459D02*
X859583D01*
X879211D02*
X892755D01*
X903158D02*
X911402D01*
X922001D02*
X928674D01*
X939274D02*
X961257D01*
X779697Y38835D02*
X787941D01*
X817383D02*
X824056D01*
X834459D02*
X868809D01*
X879015D02*
X892755D01*
X903158D02*
X911402D01*
X922001D02*
X928674D01*
X939274D02*
X961453D01*
X779697Y38638D02*
X787941D01*
X817383D02*
X824056D01*
X834459D02*
X868612D01*
X878819D02*
X892755D01*
X903158D02*
X911402D01*
X922001D02*
X928674D01*
X939274D02*
X961453D01*
X779697Y38442D02*
X787941D01*
X817383D02*
X824056D01*
X834459D02*
X868612D01*
X878819D02*
X892755D01*
X903158D02*
X911402D01*
X922001D02*
X928674D01*
X939274D02*
X961649D01*
X779697Y38246D02*
X787941D01*
X817383D02*
X824056D01*
X834459D02*
X868612D01*
X878623D02*
X892755D01*
X903158D02*
X911402D01*
X922001D02*
X928674D01*
X939274D02*
X962042D01*
X779697Y38049D02*
X787941D01*
X817383D02*
X824056D01*
X834459D02*
X868416D01*
X878426D02*
X892755D01*
X903158D02*
X911402D01*
X922001D02*
X928674D01*
X939274D02*
X962238D01*
X779697Y37853D02*
X787941D01*
X817383D02*
X824056D01*
X834459D02*
X868416D01*
X878230D02*
X892755D01*
X903158D02*
X911402D01*
X922001D02*
X928674D01*
X939274D02*
X962435D01*
X779697Y37657D02*
X787941D01*
X817383D02*
X824056D01*
X834459D02*
X868416D01*
X878230D02*
X892755D01*
X903158D02*
X911402D01*
X922001D02*
X928674D01*
X939274D02*
X962631D01*
X779697Y37461D02*
X787941D01*
X817383D02*
X824056D01*
X834459D02*
X868220D01*
X878034D02*
X892755D01*
X903158D02*
X911402D01*
X922001D02*
X928674D01*
X939274D02*
X962827D01*
X779697Y37264D02*
X787941D01*
X817383D02*
X824056D01*
X834459D02*
X868220D01*
X877838D02*
X892755D01*
X903158D02*
X911402D01*
X922001D02*
X928674D01*
X939274D02*
X963024D01*
X779697Y37068D02*
X787941D01*
X817383D02*
X824056D01*
X834459D02*
X844862D01*
X845255D02*
X868220D01*
X877838D02*
X892755D01*
X903158D02*
X911402D01*
X922001D02*
X928674D01*
X939274D02*
X949480D01*
X949873D02*
X963220D01*
X779697Y36872D02*
X787941D01*
X817383D02*
X824056D01*
X834459D02*
X844666D01*
X845451D02*
X868023D01*
X877641D02*
X892755D01*
X903158D02*
X911402D01*
X922001D02*
X928674D01*
X939274D02*
X949284D01*
X950069D02*
X963416D01*
X779697Y36676D02*
X787941D01*
X817383D02*
X824056D01*
X834459D02*
X844470D01*
X845647D02*
X868023D01*
X877445D02*
X892755D01*
X903158D02*
X911402D01*
X922001D02*
X928674D01*
X939274D02*
X949088D01*
X950462D02*
X963612D01*
X779697Y36479D02*
X787941D01*
X817383D02*
X824056D01*
X834459D02*
X844273D01*
X845844D02*
X867827D01*
X877249D02*
X892755D01*
X903158D02*
X911402D01*
X922001D02*
X928674D01*
X939274D02*
X948891D01*
X950658D02*
X963809D01*
X779697Y36283D02*
X787941D01*
X817383D02*
X824056D01*
X834459D02*
X844077D01*
X846040D02*
X867827D01*
X877249D02*
X892755D01*
X903158D02*
X911402D01*
X922001D02*
X928674D01*
X939274D02*
X948695D01*
X950658D02*
X964005D01*
X779697Y36087D02*
X787941D01*
X817383D02*
X824056D01*
X834459D02*
X843881D01*
X846236D02*
X867827D01*
X877052D02*
X892755D01*
X903158D02*
X911402D01*
X922001D02*
X928674D01*
X939274D02*
X948499D01*
X951050D02*
X964201D01*
X779697Y35890D02*
X787941D01*
X798540D02*
X806784D01*
X817383D02*
X824056D01*
X834459D02*
X843684D01*
X846629D02*
X867631D01*
X876856D02*
X892755D01*
X903158D02*
X911402D01*
X922001D02*
X928674D01*
X939274D02*
X948302D01*
X951247D02*
X964398D01*
X779697Y35694D02*
X787941D01*
X798540D02*
X806784D01*
X817383D02*
X824056D01*
X834459D02*
X843488D01*
X846825D02*
X867631D01*
X876660D02*
X892755D01*
X903158D02*
X911402D01*
X922001D02*
X928674D01*
X939274D02*
X948106D01*
X951443D02*
X964594D01*
X779697Y35498D02*
X787941D01*
X798540D02*
X806784D01*
X817383D02*
X824056D01*
X834459D02*
X843292D01*
X846825D02*
X867631D01*
X876660D02*
X892755D01*
X903158D02*
X911402D01*
X922001D02*
X928674D01*
X939274D02*
X947910D01*
X951639D02*
X964594D01*
X779697Y35302D02*
X787941D01*
X798540D02*
X806784D01*
X817383D02*
X824056D01*
X834459D02*
X843096D01*
X847021D02*
X867434D01*
X876463D02*
X892755D01*
X903158D02*
X911402D01*
X922001D02*
X928674D01*
X939274D02*
X947714D01*
X951835D02*
X964790D01*
X779697Y35105D02*
X787941D01*
X798540D02*
X806784D01*
X817383D02*
X824056D01*
X834459D02*
X842899D01*
X847218D02*
X867434D01*
X876267D02*
X892755D01*
X903158D02*
X911402D01*
X922001D02*
X928674D01*
X939274D02*
X947517D01*
X952032D02*
X964986D01*
X779697Y34909D02*
X787941D01*
X798540D02*
X806784D01*
X817383D02*
X824056D01*
X834459D02*
X842703D01*
X847610D02*
X867434D01*
X876267D02*
X892755D01*
X903158D02*
X911402D01*
X922001D02*
X928674D01*
X939274D02*
X947321D01*
X952228D02*
X965183D01*
X779697Y34713D02*
X787941D01*
X798540D02*
X806784D01*
X817383D02*
X824056D01*
X834459D02*
X842507D01*
X847610D02*
X867238D01*
X876071D02*
X892755D01*
X903158D02*
X911402D01*
X922001D02*
X928674D01*
X939274D02*
X947125D01*
X952424D02*
X965183D01*
X779697Y34516D02*
X787941D01*
X798540D02*
X806784D01*
X817383D02*
X824056D01*
X834459D02*
X842310D01*
X847806D02*
X867238D01*
X875875D02*
X892755D01*
X903158D02*
X911402D01*
X922001D02*
X928674D01*
X939274D02*
X946928D01*
X952621D02*
X965183D01*
X779697Y34320D02*
X787941D01*
X798540D02*
X806784D01*
X817383D02*
X824056D01*
X834459D02*
X842114D01*
X848199D02*
X867238D01*
X875875D02*
X892755D01*
X903158D02*
X911402D01*
X922001D02*
X928674D01*
X939274D02*
X946732D01*
X952817D02*
X965379D01*
X779697Y34124D02*
X787941D01*
X798540D02*
X806784D01*
X817383D02*
X824056D01*
X834459D02*
X841918D01*
X848395D02*
X867042D01*
X875678D02*
X892755D01*
X903158D02*
X911402D01*
X922001D02*
X928674D01*
X939274D02*
X946536D01*
X953013D02*
X965379D01*
X779697Y33928D02*
X787941D01*
X798540D02*
X806784D01*
X817383D02*
X824056D01*
X834459D02*
X841722D01*
X848592D02*
X867042D01*
X875482D02*
X892755D01*
X903158D02*
X911402D01*
X922001D02*
X928674D01*
X939274D02*
X946340D01*
X953209D02*
X965575D01*
X779697Y33731D02*
X787941D01*
X798540D02*
X806784D01*
X817383D02*
X824056D01*
X834459D02*
X841525D01*
X848788D02*
X867042D01*
X875286D02*
X892755D01*
X903158D02*
X911402D01*
X922001D02*
X928674D01*
X939274D02*
X946143D01*
X953406D02*
X965771D01*
X779697Y33535D02*
X787941D01*
X798540D02*
X806784D01*
X817383D02*
X824056D01*
X834459D02*
X841329D01*
X848984D02*
X866846D01*
X875286D02*
X892755D01*
X903158D02*
X911402D01*
X922001D02*
X928674D01*
X939274D02*
X945947D01*
X953602D02*
X965771D01*
X779697Y33339D02*
X787941D01*
X798540D02*
X806784D01*
X817383D02*
X824056D01*
X834459D02*
X841133D01*
X849180D02*
X866846D01*
X875089D02*
X892755D01*
X903158D02*
X911402D01*
X922001D02*
X928674D01*
X939274D02*
X945751D01*
X953798D02*
X965968D01*
X779697Y33142D02*
X787941D01*
X798540D02*
X806784D01*
X817383D02*
X824056D01*
X834459D02*
X840937D01*
X849377D02*
X866846D01*
X874893D02*
X892755D01*
X903158D02*
X911402D01*
X922001D02*
X928674D01*
X939274D02*
X945555D01*
X953995D02*
X965968D01*
X779697Y32946D02*
X787941D01*
X798540D02*
X806784D01*
X817383D02*
X824056D01*
X834459D02*
X840740D01*
X849573D02*
X866649D01*
X874697D02*
X892755D01*
X903158D02*
X911402D01*
X922001D02*
X928674D01*
X939274D02*
X945358D01*
X954191D02*
X965968D01*
X779697Y32750D02*
X787941D01*
X798540D02*
X806784D01*
X817383D02*
X824056D01*
X834459D02*
X840544D01*
X849769D02*
X866649D01*
X874697D02*
X892755D01*
X903158D02*
X911402D01*
X922001D02*
X928674D01*
X939274D02*
X945162D01*
X954387D02*
X966164D01*
X779697Y32554D02*
X787941D01*
X798540D02*
X806784D01*
X817383D02*
X824056D01*
X834459D02*
X840348D01*
X849966D02*
X866649D01*
X874501D02*
X892755D01*
X903158D02*
X911402D01*
X922001D02*
X928674D01*
X939274D02*
X944966D01*
X954583D02*
X966164D01*
X779697Y32357D02*
X787941D01*
X798540D02*
X806784D01*
X817383D02*
X824056D01*
X834459D02*
X840152D01*
X850162D02*
X866453D01*
X874304D02*
X892755D01*
X903158D02*
X911205D01*
X922001D02*
X928674D01*
X939274D02*
X944769D01*
X954780D02*
X966164D01*
X779697Y32161D02*
X787941D01*
X798540D02*
X806784D01*
X817383D02*
X824056D01*
X834459D02*
X839955D01*
X850358D02*
X866453D01*
X874304D02*
X892755D01*
X903158D02*
X911009D01*
X922001D02*
X928674D01*
X939274D02*
X944573D01*
X954976D02*
X966164D01*
X779697Y31965D02*
X787941D01*
X798540D02*
X806784D01*
X817383D02*
X824056D01*
X834459D02*
X839759D01*
X850554D02*
X866453D01*
X874108D02*
X892755D01*
X903158D02*
X910813D01*
X922001D02*
X928674D01*
X939274D02*
X944377D01*
X955172D02*
X966164D01*
X779304Y31769D02*
X787941D01*
X798540D02*
X806784D01*
X817383D02*
X824056D01*
X834459D02*
X839563D01*
X850751D02*
X866257D01*
X873912D02*
X892755D01*
X903158D02*
X910616D01*
X922001D02*
X928674D01*
X939274D02*
X944181D01*
X955368D02*
X966360D01*
X779304Y31572D02*
X787941D01*
X798540D02*
X806784D01*
X817383D02*
X824056D01*
X834459D02*
X839366D01*
X850947D02*
X866257D01*
X873912D02*
X892755D01*
X903158D02*
X910420D01*
X922001D02*
X928674D01*
X939274D02*
X943984D01*
X955565D02*
X966360D01*
X779108Y31376D02*
X787941D01*
X798540D02*
X806784D01*
X817383D02*
X824056D01*
X834459D02*
X839170D01*
X851143D02*
X866061D01*
X873716D02*
X892755D01*
X903158D02*
X910224D01*
X922001D02*
X928674D01*
X939274D02*
X943788D01*
X955761D02*
X966360D01*
X778912Y31180D02*
X787941D01*
X798540D02*
X806784D01*
X817383D02*
X824056D01*
X834656D02*
X838974D01*
X851339D02*
X866061D01*
X873519D02*
X892755D01*
X903158D02*
X910028D01*
X922001D02*
X928674D01*
X939274D02*
X943592D01*
X955957D02*
X966360D01*
X778715Y30983D02*
X787941D01*
X798540D02*
X806784D01*
X817383D02*
X824056D01*
X834852D02*
X838777D01*
X851536D02*
X866061D01*
X873519D02*
X892755D01*
X903158D02*
X909831D01*
X922001D02*
X928674D01*
X939470D02*
X943395D01*
X956154D02*
X966360D01*
X778519Y30787D02*
X787941D01*
X798540D02*
X806784D01*
X817383D02*
X824056D01*
X835048D02*
X838581D01*
X851732D02*
X865864D01*
X873323D02*
X892755D01*
X903158D02*
X909635D01*
X922001D02*
X928674D01*
X939862D02*
X943199D01*
X956350D02*
X966360D01*
X778127Y30591D02*
X787941D01*
X798540D02*
X806784D01*
X817383D02*
X824056D01*
X835244D02*
X838385D01*
X851928D02*
X865864D01*
X873127D02*
X892755D01*
X903158D02*
X909439D01*
X922001D02*
X928674D01*
X940059D02*
X943003D01*
X956546D02*
X966557D01*
X778127Y30395D02*
X787941D01*
X798540D02*
X806784D01*
X817383D02*
X824056D01*
X835441D02*
X838189D01*
X852125D02*
X865864D01*
X872930D02*
X892755D01*
X903158D02*
X909242D01*
X922001D02*
X928674D01*
X940255D02*
X942806D01*
X956742D02*
X966557D01*
X777930Y30198D02*
X787941D01*
X798540D02*
X806784D01*
X817383D02*
X824056D01*
X835833D02*
X837992D01*
X852321D02*
X865668D01*
X872734D02*
X892755D01*
X903158D02*
X909046D01*
X922001D02*
X928674D01*
X940451D02*
X942610D01*
X956939D02*
X966557D01*
X777734Y30002D02*
X787941D01*
X798540D02*
X806784D01*
X817383D02*
X824056D01*
X836030D02*
X837796D01*
X852517D02*
X865668D01*
X872734D02*
X892755D01*
X903158D02*
X908850D01*
X922001D02*
X928674D01*
X940647D02*
X942414D01*
X957135D02*
X966557D01*
X777538Y29806D02*
X787941D01*
X798540D02*
X806784D01*
X817383D02*
X824056D01*
X836030D02*
X837600D01*
X852713D02*
X865668D01*
X872538D02*
X892755D01*
X903158D02*
X908654D01*
X922001D02*
X928674D01*
X940844D02*
X942218D01*
X957331D02*
X966557D01*
X777341Y29609D02*
X787941D01*
X798540D02*
X806784D01*
X817383D02*
X824056D01*
X836422D02*
X837403D01*
X852713D02*
X865472D01*
X872342D02*
X892755D01*
X903158D02*
X908457D01*
X922001D02*
X928674D01*
X941040D02*
X942021D01*
X957331D02*
X966557D01*
X777341Y29413D02*
X787941D01*
X798540D02*
X806784D01*
X817383D02*
X824056D01*
X836618D02*
X837207D01*
X852517D02*
X865472D01*
X872342D02*
X892755D01*
X903158D02*
X908261D01*
X922001D02*
X928674D01*
X941236D02*
X941825D01*
X957135D02*
X966360D01*
X777145Y29217D02*
X787941D01*
X798540D02*
X806784D01*
X817383D02*
X824056D01*
X836815D02*
X837011D01*
X852321D02*
X865472D01*
X872145D02*
X892755D01*
X903158D02*
X908065D01*
X922001D02*
X928674D01*
X941433D02*
X941629D01*
X956939D02*
X966360D01*
X776949Y29021D02*
X787941D01*
X798540D02*
X806784D01*
X817383D02*
X824056D01*
X852125D02*
X865275D01*
X871949D02*
X892755D01*
X903158D02*
X907868D01*
X922001D02*
X928674D01*
X956742D02*
X966360D01*
X776949Y28824D02*
X787941D01*
X798540D02*
X806784D01*
X817383D02*
X824056D01*
X851928D02*
X865275D01*
X871949D02*
X892755D01*
X903158D02*
X907672D01*
X922001D02*
X928674D01*
X956546D02*
X966360D01*
X776753Y28628D02*
X787941D01*
X798540D02*
X806784D01*
X817383D02*
X824056D01*
X851732D02*
X865275D01*
X871753D02*
X892755D01*
X903158D02*
X907280D01*
X922001D02*
X928674D01*
X956350D02*
X966360D01*
X776753Y28432D02*
X787941D01*
X798540D02*
X806784D01*
X817383D02*
X824056D01*
X851536D02*
X865079D01*
X871556D02*
X892755D01*
X903158D02*
X907083D01*
X922001D02*
X928674D01*
X956154D02*
X966360D01*
X776556Y28235D02*
X787941D01*
X798540D02*
X806784D01*
X817383D02*
X824056D01*
X851339D02*
X865079D01*
X871360D02*
X892755D01*
X903158D02*
X906887D01*
X922001D02*
X928478D01*
X955957D02*
X966360D01*
X776556Y28039D02*
X787941D01*
X798736D02*
X806784D01*
X817383D02*
X824056D01*
X851143D02*
X865079D01*
X871360D02*
X892755D01*
X903158D02*
X906691D01*
X922001D02*
X928674D01*
X955761D02*
X966164D01*
X776360Y27843D02*
X787744D01*
X798932D02*
X806391D01*
X817579D02*
X824056D01*
X850947D02*
X864883D01*
X871164D02*
X892755D01*
X903158D02*
X906495D01*
X922001D02*
X928674D01*
X955565D02*
X966164D01*
X776360Y27647D02*
X787548D01*
X799129D02*
X806195D01*
X817775D02*
X824253D01*
X850751D02*
X864883D01*
X870968D02*
X892755D01*
X903158D02*
X906298D01*
X922001D02*
X928871D01*
X955368D02*
X966164D01*
X776164Y27450D02*
X787352D01*
X799325D02*
X805999D01*
X817972D02*
X824449D01*
X850554D02*
X864883D01*
X870771D02*
X892755D01*
X903158D02*
X906102D01*
X922001D02*
X929067D01*
X955172D02*
X966164D01*
X776164Y27254D02*
X787156D01*
X799521D02*
X805802D01*
X818168D02*
X824645D01*
X850358D02*
X864687D01*
X870771D02*
X892755D01*
X903158D02*
X905906D01*
X922001D02*
X929263D01*
X954976D02*
X965968D01*
X776164Y27058D02*
X786959D01*
X799717D02*
X805606D01*
X818364D02*
X824842D01*
X850162D02*
X864687D01*
X870575D02*
X892362D01*
X903158D02*
X905709D01*
X922001D02*
X929459D01*
X954780D02*
X965968D01*
X775967Y26862D02*
X786763D01*
X799914D02*
X805410D01*
X818560D02*
X825038D01*
X849966D02*
X864687D01*
X870379D02*
X892362D01*
X903158D02*
X905513D01*
X922001D02*
X929656D01*
X954583D02*
X965968D01*
X775967Y26665D02*
X786567D01*
X800110D02*
X805213D01*
X818757D02*
X825234D01*
X849769D02*
X864490D01*
X870379D02*
X891970D01*
X903158D02*
X905317D01*
X922001D02*
X929852D01*
X954387D02*
X965771D01*
X775967Y26469D02*
X786370D01*
X800306D02*
X805213D01*
X818953D02*
X825430D01*
X849573D02*
X864490D01*
X870182D02*
X891773D01*
X903158D02*
X905120D01*
X921805D02*
X930048D01*
X954191D02*
X965771D01*
X775967Y26273D02*
X786174D01*
X800503D02*
X804821D01*
X819149D02*
X825627D01*
X849377D02*
X864490D01*
X869986D02*
X891577D01*
X903158D02*
X904924D01*
X921608D02*
X930245D01*
X953995D02*
X965575D01*
X775771Y26076D02*
X785978D01*
X800699D02*
X804821D01*
X819346D02*
X825823D01*
X849180D02*
X864294D01*
X869790D02*
X891381D01*
X903158D02*
X904728D01*
X921412D02*
X930441D01*
X953798D02*
X965575D01*
X775771Y25880D02*
X785781D01*
X800895D02*
X804428D01*
X819542D02*
X826019D01*
X848984D02*
X864294D01*
X869594D02*
X891185D01*
X903158D02*
X904532D01*
X921216D02*
X930637D01*
X953602D02*
X965379D01*
X775771Y25684D02*
X785585D01*
X801092D02*
X804232D01*
X819738D02*
X826216D01*
X848788D02*
X864294D01*
X869594D02*
X890988D01*
X903158D02*
X904335D01*
X921216D02*
X930833D01*
X953406D02*
X965379D01*
X775771Y25487D02*
X785389D01*
X801288D02*
X804036D01*
X819934D02*
X826412D01*
X848592D02*
X864098D01*
X869397D02*
X890792D01*
X903158D02*
X904139D01*
X920823D02*
X931030D01*
X953209D02*
X965183D01*
X775771Y25291D02*
X785193D01*
X801484D02*
X803839D01*
X820131D02*
X826608D01*
X848395D02*
X864098D01*
X869201D02*
X890596D01*
X903158D02*
X903943D01*
X920627D02*
X931226D01*
X953013D02*
X965183D01*
X775771Y25095D02*
X784996D01*
X801680D02*
X803643D01*
X820327D02*
X826804D01*
X848199D02*
X863902D01*
X869201D02*
X890399D01*
X903158D02*
X903747D01*
X920627D02*
X931422D01*
X952817D02*
X964986D01*
X775575Y24899D02*
X784800D01*
X801877D02*
X803447D01*
X820523D02*
X827001D01*
X848003D02*
X863902D01*
X869005D02*
X879800D01*
X879996D02*
X890203D01*
X903158D02*
X903550D01*
X920431D02*
X931618D01*
X952621D02*
X964790D01*
X775575Y24702D02*
X784604D01*
X802073D02*
X803251D01*
X820720D02*
X827197D01*
X847806D02*
X863902D01*
X868809D02*
X879800D01*
X879996D02*
X890007D01*
X920234D02*
X931815D01*
X952424D02*
X964594D01*
X775575Y24506D02*
X784408D01*
X802269D02*
X803054D01*
X820916D02*
X827393D01*
X847610D02*
X863705D01*
X868809D02*
X879604D01*
X879996D02*
X889811D01*
X920038D02*
X932011D01*
X952228D02*
X964594D01*
X775575Y24310D02*
X784211D01*
X802466D02*
X802858D01*
X821112D02*
X827589D01*
X847414D02*
X863705D01*
X868612D02*
X879604D01*
X879996D02*
X889614D01*
X919842D02*
X932207D01*
X952032D02*
X964398D01*
X775575Y24114D02*
X784015D01*
X821308D02*
X827786D01*
X847218D02*
X863705D01*
X868416D02*
X879408D01*
X879996D02*
X889418D01*
X919645D02*
X932404D01*
X951835D02*
X964201D01*
X775575Y23917D02*
X783819D01*
X821505D02*
X827982D01*
X847021D02*
X863509D01*
X868220D02*
X879211D01*
X879996D02*
X889222D01*
X919253D02*
X932600D01*
X951639D02*
X964005D01*
X775575Y23721D02*
X784015D01*
X802466D02*
X802858D01*
X821308D02*
X828178D01*
X846825D02*
X863509D01*
X868220D02*
X879015D01*
X879996D02*
X889025D01*
X919056D02*
X932796D01*
X951443D02*
X963809D01*
X775575Y23525D02*
X784211D01*
X802269D02*
X803054D01*
X821112D02*
X828375D01*
X846629D02*
X863509D01*
X868023D02*
X878819D01*
X879996D02*
X888829D01*
X919056D02*
X932992D01*
X951247D02*
X963612D01*
X775771Y23328D02*
X784408D01*
X802269D02*
X803251D01*
X820916D02*
X828571D01*
X846432D02*
X863313D01*
X867827D02*
X878819D01*
X879996D02*
X888633D01*
X918664D02*
X933189D01*
X951050D02*
X963416D01*
X775771Y23132D02*
X784604D01*
X802073D02*
X803447D01*
X820720D02*
X828767D01*
X846236D02*
X863313D01*
X867827D02*
X878623D01*
X879996D02*
X888437D01*
X918664D02*
X933385D01*
X950854D02*
X963220D01*
X775771Y22936D02*
X784800D01*
X801680D02*
X803643D01*
X820523D02*
X828963D01*
X846040D02*
X863313D01*
X867631D02*
X878426D01*
X879996D02*
X888437D01*
X918468D02*
X933581D01*
X950658D02*
X963024D01*
X775771Y22740D02*
X784996D01*
X801484D02*
X803839D01*
X820327D02*
X829160D01*
X845844D02*
X863116D01*
X867434D02*
X878230D01*
X879996D02*
X888437D01*
X918271D02*
X933778D01*
X950462D02*
X962827D01*
X775771Y22543D02*
X785193D01*
X801288D02*
X804036D01*
X820131D02*
X829356D01*
X845647D02*
X863116D01*
X867238D02*
X878230D01*
X879996D02*
X888633D01*
X918075D02*
X933974D01*
X950265D02*
X962631D01*
X775771Y22347D02*
X785389D01*
X801092D02*
X804232D01*
X819934D02*
X829552D01*
X845451D02*
X862920D01*
X867238D02*
X878034D01*
X879996D02*
X889025D01*
X917682D02*
X934170D01*
X950069D02*
X962435D01*
X775967Y22151D02*
X785585D01*
X800895D02*
X804428D01*
X819738D02*
X829749D01*
X845255D02*
X862920D01*
X867042D02*
X877838D01*
X879996D02*
X889222D01*
X917486D02*
X934367D01*
X949873D02*
X962238D01*
X775967Y21955D02*
X785781D01*
X800699D02*
X804625D01*
X819542D02*
X829945D01*
X845059D02*
X862920D01*
X866846D02*
X877838D01*
X880193D02*
X889222D01*
X917486D02*
X934563D01*
X949676D02*
X962042D01*
X775967Y21758D02*
X785978D01*
X800503D02*
X804821D01*
X819346D02*
X830141D01*
X844862D02*
X862920D01*
X866649D02*
X877641D01*
X880193D02*
X889418D01*
X917290D02*
X934759D01*
X949480D02*
X961846D01*
X775967Y21562D02*
X786174D01*
X800306D02*
X805017D01*
X819149D02*
X830337D01*
X844666D02*
X862724D01*
X866649D02*
X877445D01*
X880193D02*
X889614D01*
X917094D02*
X934955D01*
X949284D02*
X961649D01*
X776164Y21366D02*
X786370D01*
X800110D02*
X805213D01*
X818953D02*
X830534D01*
X844470D02*
X862724D01*
X866453D02*
X877445D01*
X880193D02*
X889811D01*
X916897D02*
X935152D01*
X949088D02*
X961453D01*
X776164Y21169D02*
X786567D01*
X799914D02*
X805410D01*
X818757D02*
X830730D01*
X844273D02*
X862527D01*
X866257D02*
X877249D01*
X880193D02*
X890007D01*
X916701D02*
X935348D01*
X948891D02*
X961257D01*
X776164Y20973D02*
X786763D01*
X799717D02*
X805606D01*
X818560D02*
X830926D01*
X843881D02*
X862527D01*
X866257D02*
X877052D01*
X880389D02*
X890203D01*
X916505D02*
X935544D01*
X948695D02*
X961061D01*
X776360Y20777D02*
X786959D01*
X799521D02*
X805802D01*
X818364D02*
X831123D01*
X843881D02*
X862527D01*
X866061D02*
X876856D01*
X880389D02*
X890399D01*
X916112D02*
X935740D01*
X948499D02*
X960864D01*
X776360Y20580D02*
X787156D01*
X799325D02*
X805999D01*
X818168D02*
X831319D01*
X843684D02*
X862527D01*
X865864D02*
X876856D01*
X880389D02*
X890596D01*
X916112D02*
X935937D01*
X948302D02*
X960668D01*
X776556Y20384D02*
X787352D01*
X799129D02*
X806195D01*
X817972D02*
X831515D01*
X843488D02*
X862331D01*
X865864D02*
X876660D01*
X880389D02*
X890792D01*
X915916D02*
X936133D01*
X948106D02*
X960472D01*
X776556Y20188D02*
X787548D01*
X799129D02*
X806391D01*
X817775D02*
X831711D01*
X843292D02*
X862331D01*
X865668D02*
X876463D01*
X880585D02*
X890988D01*
X915523D02*
X936329D01*
X947910D02*
X960276D01*
X776753Y19992D02*
X787744D01*
X798932D02*
X806587D01*
X817579D02*
X831908D01*
X843096D02*
X862135D01*
X865472D02*
X876463D01*
X880585D02*
X891185D01*
X915523D02*
X936525D01*
X947714D02*
X960079D01*
X776753Y19795D02*
X787941D01*
X798540D02*
X806784D01*
X817383D02*
X832104D01*
X842899D02*
X862135D01*
X865275D02*
X876267D01*
X880782D02*
X891381D01*
X915327D02*
X936722D01*
X947517D02*
X959883D01*
X776949Y19599D02*
X788137D01*
X798344D02*
X806980D01*
X817187D02*
X832300D01*
X842703D02*
X862135D01*
X865275D02*
X876071D01*
X880782D02*
X891577D01*
X915131D02*
X936918D01*
X947321D02*
X959687D01*
X776949Y19403D02*
X788333D01*
X798344D02*
X807176D01*
X816990D02*
X832496D01*
X842507D02*
X861939D01*
X865079D02*
X875875D01*
X880782D02*
X891773D01*
X914935D02*
X937114D01*
X947125D02*
X959491D01*
X777145Y19207D02*
X788530D01*
X797951D02*
X807373D01*
X816794D02*
X832693D01*
X842310D02*
X861939D01*
X864883D02*
X875678D01*
X880978D02*
X891970D01*
X914738D02*
X937311D01*
X946928D02*
X959294D01*
X777341Y19010D02*
X788726D01*
X797755D02*
X807569D01*
X816598D02*
X832889D01*
X842114D02*
X861939D01*
X864883D02*
X875678D01*
X880978D02*
X892166D01*
X914542D02*
X937507D01*
X946732D02*
X959098D01*
X777538Y18814D02*
X788922D01*
X797558D02*
X807765D01*
X816401D02*
X833085D01*
X841918D02*
X861742D01*
X864687D02*
X875482D01*
X881174D02*
X892362D01*
X914346D02*
X937703D01*
X946536D02*
X958902D01*
X777734Y18618D02*
X789118D01*
X797558D02*
X807765D01*
X816205D02*
X833282D01*
X841722D02*
X861742D01*
X864490D02*
X875286D01*
X881370D02*
X892559D01*
X914149D02*
X937899D01*
X946340D02*
X958705D01*
X777734Y18421D02*
X789315D01*
X797362D02*
X808158D01*
X816009D02*
X833478D01*
X841525D02*
X861742D01*
X864294D02*
X875286D01*
X881370D02*
X892755D01*
X913953D02*
X938096D01*
X946143D02*
X958509D01*
X777930Y18225D02*
X789511D01*
X797166D02*
X808354D01*
X815813D02*
X833674D01*
X841329D02*
X861546D01*
X864294D02*
X875089D01*
X881567D02*
X892951D01*
X913757D02*
X926123D01*
X926712D02*
X938292D01*
X945947D02*
X958313D01*
X778127Y18029D02*
X789707D01*
X796773D02*
X808354D01*
X815616D02*
X833870D01*
X841133D02*
X861546D01*
X864098D02*
X874893D01*
X881763D02*
X893147D01*
X913561D02*
X925926D01*
X926908D02*
X938488D01*
X945751D02*
X958117D01*
X778323Y17833D02*
X789903D01*
X796773D02*
X808746D01*
X815420D02*
X834067D01*
X840937D02*
X861546D01*
X863902D02*
X874893D01*
X881763D02*
X893344D01*
X913364D02*
X925730D01*
X927104D02*
X938685D01*
X945555D02*
X957920D01*
X778519Y17636D02*
X790100D01*
X796577D02*
X808943D01*
X815224D02*
X834263D01*
X840740D02*
X861350D01*
X863705D02*
X874697D01*
X881959D02*
X893540D01*
X913168D02*
X925338D01*
X927300D02*
X938881D01*
X945358D02*
X957724D01*
X778715Y17440D02*
X790296D01*
X796381D02*
X809139D01*
X815027D02*
X834459D01*
X840544D02*
X861350D01*
X863705D02*
X874501D01*
X882156D02*
X893736D01*
X912972D02*
X925338D01*
X927497D02*
X939077D01*
X945162D02*
X957528D01*
X778912Y17244D02*
X790492D01*
X796184D02*
X809335D01*
X814831D02*
X834656D01*
X840348D02*
X861350D01*
X863509D02*
X874304D01*
X882352D02*
X893736D01*
X912775D02*
X925141D01*
X927693D02*
X939274D01*
X944966D02*
X957331D01*
X779108Y17047D02*
X790689D01*
X795988D02*
X809335D01*
X814635D02*
X834852D01*
X840152D02*
X861153D01*
X863313D02*
X874304D01*
X882548D02*
X893932D01*
X912579D02*
X924945D01*
X927889D02*
X939470D01*
X944769D02*
X957135D01*
X779304Y16851D02*
X790885D01*
X795792D02*
X809532D01*
X814439D02*
X835048D01*
X839955D02*
X861153D01*
X863313D02*
X874108D01*
X882745D02*
X894129D01*
X912383D02*
X924749D01*
X928085D02*
X939666D01*
X944573D02*
X956939D01*
X779501Y16655D02*
X791081D01*
X795596D02*
X809924D01*
X814242D02*
X835244D01*
X839759D02*
X860957D01*
X863116D02*
X873912D01*
X882941D02*
X894521D01*
X912187D02*
X924552D01*
X928282D02*
X939862D01*
X944377D02*
X956742D01*
X779697Y16459D02*
X791277D01*
X795203D02*
X809924D01*
X814046D02*
X835441D01*
X839563D02*
X860957D01*
X862920D02*
X873716D01*
X883137D02*
X894718D01*
X911990D02*
X924356D01*
X928478D02*
X940059D01*
X944181D02*
X956546D01*
X779893Y16262D02*
X791474D01*
X795203D02*
X810120D01*
X813850D02*
X835637D01*
X839366D02*
X860957D01*
X862724D02*
X873716D01*
X883333D02*
X894718D01*
X911794D02*
X924160D01*
X928674D02*
X940255D01*
X943984D02*
X956350D01*
X780089Y16066D02*
X791670D01*
X795007D02*
X810317D01*
X813653D02*
X835833D01*
X839170D02*
X851536D01*
X851732D02*
X860761D01*
X862724D02*
X873519D01*
X883530D02*
X895110D01*
X911598D02*
X923964D01*
X928871D02*
X940451D01*
X943788D02*
X956154D01*
X780286Y15870D02*
X791866D01*
X794810D02*
X810709D01*
X813457D02*
X836030D01*
X838974D02*
X851536D01*
X851732D02*
X860761D01*
X862527D02*
X873323D01*
X883726D02*
X895306D01*
X911402D02*
X923767D01*
X929067D02*
X940647D01*
X943592D02*
X955957D01*
X780482Y15674D02*
X792063D01*
X794614D02*
X810906D01*
X813261D02*
X836226D01*
X838777D02*
X851143D01*
X851732D02*
X860761D01*
X862331D02*
X873323D01*
X883922D02*
X895503D01*
X911205D02*
X923571D01*
X929263D02*
X940844D01*
X943395D02*
X955761D01*
X780678Y15477D02*
X792259D01*
X794418D02*
X810906D01*
X813065D02*
X836422D01*
X838581D02*
X850947D01*
X851536D02*
X860565D01*
X862331D02*
X873127D01*
X884118D02*
X895503D01*
X911009D02*
X923375D01*
X929459D02*
X941040D01*
X943199D02*
X955565D01*
X780874Y15281D02*
X792455D01*
X794222D02*
X811298D01*
X812868D02*
X836618D01*
X838385D02*
X850751D01*
X851536D02*
X860565D01*
X862135D02*
X872930D01*
X884315D02*
X895699D01*
X910813D02*
X923178D01*
X929656D02*
X941236D01*
X943003D02*
X955368D01*
X781071Y15085D02*
X792651D01*
X794025D02*
X811494D01*
X812672D02*
X836815D01*
X838189D02*
X850554D01*
X851536D02*
X860565D01*
X861939D02*
X872734D01*
X884511D02*
X895895D01*
X910616D02*
X922982D01*
X929852D02*
X941433D01*
X942806D02*
X955172D01*
X781267Y14888D02*
X792848D01*
X793829D02*
X811691D01*
X812476D02*
X824842D01*
X825234D02*
X837011D01*
X837992D02*
X850358D01*
X851536D02*
X860368D01*
X861742D02*
X872734D01*
X884707D02*
X896092D01*
X910420D02*
X922786D01*
X930048D02*
X941629D01*
X942610D02*
X954976D01*
X781463Y14692D02*
X793044D01*
X793633D02*
X811691D01*
X812280D02*
X824645D01*
X825430D02*
X837207D01*
X837600D02*
X850162D01*
X851536D02*
X860368D01*
X861742D02*
X872538D01*
X884904D02*
X896288D01*
X910224D02*
X922590D01*
X930245D02*
X941825D01*
X942414D02*
X954780D01*
X781660Y14496D02*
X793240D01*
X793437D02*
X824449D01*
X825823D02*
X849966D01*
X851339D02*
X860368D01*
X861546D02*
X872342D01*
X885100D02*
X922393D01*
X930441D02*
X954583D01*
X781856Y14299D02*
X824253D01*
X826019D02*
X849769D01*
X851339D02*
X860172D01*
X861350D02*
X872342D01*
X885296D02*
X922197D01*
X930637D02*
X954387D01*
X782052Y14103D02*
X824056D01*
X826019D02*
X849573D01*
X851339D02*
X860172D01*
X861153D02*
X872145D01*
X885492D02*
X922001D01*
X930833D02*
X954191D01*
X782249Y13907D02*
X823860D01*
X826412D02*
X849377D01*
X851339D02*
X860172D01*
X861153D02*
X871949D01*
X885492D02*
X921805D01*
X931030D02*
X953995D01*
X782445Y13711D02*
X823664D01*
X826608D02*
X849180D01*
X851339D02*
X859976D01*
X860957D02*
X871753D01*
X885689D02*
X921608D01*
X931226D02*
X953798D01*
X782641Y13514D02*
X823664D01*
X826804D02*
X848984D01*
X851339D02*
X859976D01*
X860957D02*
X871753D01*
X886081D02*
X921412D01*
X931422D02*
X953602D01*
X782837Y13318D02*
X823271D01*
X827001D02*
X848788D01*
X851339D02*
X859976D01*
X860761D02*
X871556D01*
X886081D02*
X921216D01*
X931618D02*
X953406D01*
X783034Y13122D02*
X823075D01*
X827197D02*
X848592D01*
X851339D02*
X859780D01*
X860565D02*
X871360D01*
X886278D02*
X921019D01*
X931815D02*
X953209D01*
X783034Y12925D02*
X822879D01*
X827393D02*
X848395D01*
X851339D02*
X859780D01*
X860368D02*
X871164D01*
X886670D02*
X920823D01*
X932011D02*
X953013D01*
X783426Y12729D02*
X822879D01*
X827589D02*
X848199D01*
X851339D02*
X859780D01*
X860368D02*
X871164D01*
X886670D02*
X920627D01*
X932207D02*
X952817D01*
X783622Y12533D02*
X822682D01*
X827786D02*
X848003D01*
X851339D02*
X859583D01*
X860172D02*
X870968D01*
X886866D02*
X920431D01*
X932404D02*
X952621D01*
X783819Y12337D02*
X822290D01*
X827982D02*
X847806D01*
X851339D02*
X859583D01*
X859976D02*
X870771D01*
X887063D02*
X920234D01*
X932600D02*
X952424D01*
X784015Y12140D02*
X822290D01*
X828178D02*
X847610D01*
X851339D02*
X859387D01*
X859976D02*
X870771D01*
X887455D02*
X920038D01*
X932796D02*
X952228D01*
X784211Y11944D02*
X821897D01*
X828375D02*
X847414D01*
X851536D02*
X859387D01*
X859780D02*
X870575D01*
X887652D02*
X919842D01*
X932992D02*
X952032D01*
X784211Y11748D02*
X821701D01*
X828375D02*
X847218D01*
X851536D02*
X859387D01*
X859583D02*
X870379D01*
X887652D02*
X919645D01*
X933189D02*
X951835D01*
X784604Y11552D02*
X802858D01*
X803251D02*
X821505D01*
X828767D02*
X847021D01*
X851536D02*
X859191D01*
X859387D02*
X870379D01*
X887848D02*
X919449D01*
X933385D02*
X951639D01*
X784800Y11355D02*
X802662D01*
X803447D02*
X821308D01*
X828963D02*
X846825D01*
X851536D02*
X870182D01*
X888044D02*
X919253D01*
X933581D02*
X951443D01*
X784800Y11159D02*
X802466D01*
X803643D02*
X821308D01*
X829160D02*
X846629D01*
X851536D02*
X869986D01*
X888240D02*
X919056D01*
X933778D02*
X951247D01*
X785193Y10963D02*
X802269D01*
X803839D02*
X821112D01*
X829356D02*
X846432D01*
X851732D02*
X869790D01*
X888437D02*
X918860D01*
X933974D02*
X951050D01*
X785193Y10766D02*
X802073D01*
X804036D02*
X820720D01*
X829552D02*
X846236D01*
X851732D02*
X869790D01*
X888633D02*
X918664D01*
X934170D02*
X950854D01*
X785389Y10570D02*
X801877D01*
X804232D02*
X820720D01*
X829749D02*
X846040D01*
X851732D02*
X869594D01*
X888829D02*
X918468D01*
X934367D02*
X950658D01*
X785585Y10374D02*
X801484D01*
X804428D02*
X820523D01*
X829945D02*
X845844D01*
X851928D02*
X869397D01*
X889025D02*
X918271D01*
X934563D02*
X950462D01*
X785781Y10178D02*
X801288D01*
X804625D02*
X820327D01*
X830141D02*
X845647D01*
X851928D02*
X869201D01*
X889222D02*
X918075D01*
X934759D02*
X950265D01*
X785978Y9981D02*
X801092D01*
X804821D02*
X820131D01*
X830337D02*
X845451D01*
X851928D02*
X869201D01*
X889418D02*
X917879D01*
X934955D02*
X950069D01*
X786174Y9785D02*
X800895D01*
X805213D02*
X819934D01*
X830534D02*
X845255D01*
X852125D02*
X869005D01*
X889614D02*
X917682D01*
X935152D02*
X949873D01*
X786370Y9589D02*
X800895D01*
X805213D02*
X819738D01*
X830730D02*
X845059D01*
X852125D02*
X868809D01*
X889811D02*
X917486D01*
X935348D02*
X949676D01*
X786567Y9392D02*
X800699D01*
X805410D02*
X819542D01*
X830926D02*
X844862D01*
X852321D02*
X868809D01*
X890007D02*
X917290D01*
X935544D02*
X949480D01*
X786763Y9196D02*
X800503D01*
X805606D02*
X819346D01*
X831123D02*
X844666D01*
X852321D02*
X868612D01*
X890203D02*
X917094D01*
X935740D02*
X949284D01*
X786959Y9000D02*
X800110D01*
X805999D02*
X819149D01*
X831123D02*
X844470D01*
X852517D02*
X868416D01*
X890399D02*
X916897D01*
X935937D02*
X949088D01*
X787156Y8804D02*
X800110D01*
X805999D02*
X818953D01*
X831515D02*
X844273D01*
X852517D02*
X868220D01*
X890596D02*
X916701D01*
X936133D02*
X948891D01*
X787352Y8607D02*
X799717D01*
X806391D02*
X818757D01*
X831711D02*
X844077D01*
X852713D02*
X868220D01*
X890792D02*
X916505D01*
X936329D02*
X948695D01*
X787548Y8411D02*
X799521D01*
X806587D02*
X818560D01*
X831908D02*
X843881D01*
X852713D02*
X868023D01*
X890988D02*
X916309D01*
X936525D02*
X948499D01*
X787941Y8215D02*
X799325D01*
X806784D02*
X818168D01*
X832104D02*
X843684D01*
X852910D02*
X867827D01*
X891381D02*
X916112D01*
X936722D02*
X948302D01*
X788137Y8019D02*
X799129D01*
X806980D02*
X817972D01*
X832300D02*
X843292D01*
X853106D02*
X867827D01*
X891577D02*
X915916D01*
X936918D02*
X948106D01*
X788333Y7822D02*
X798932D01*
X807176D02*
X817775D01*
X832693D02*
X843096D01*
X853106D02*
X867631D01*
X891773D02*
X915523D01*
X937311D02*
X947714D01*
X788726Y7626D02*
X798540D01*
X807569D02*
X817383D01*
X832889D02*
X842899D01*
X853302D02*
X867434D01*
X892166D02*
X915327D01*
X937507D02*
X947321D01*
X788922Y7430D02*
X798147D01*
X807961D02*
X816990D01*
X833282D02*
X842507D01*
X853499D02*
X867238D01*
X892362D02*
X914935D01*
X937899D02*
X947125D01*
X789315Y7233D02*
X797951D01*
X808158D02*
X816794D01*
X833674D02*
X842114D01*
X853695D02*
X867042D01*
X892755D02*
X914738D01*
X938292D02*
X946732D01*
X789707Y7037D02*
X797558D01*
X808550D02*
X816401D01*
X833870D02*
X841722D01*
X853891D02*
X866846D01*
X893147D02*
X914149D01*
X938685D02*
X946340D01*
X790296Y6841D02*
X797166D01*
X809139D02*
X816009D01*
X834459D02*
X841329D01*
X854087D02*
X866649D01*
X893540D02*
X913757D01*
X939077D02*
X945947D01*
X790885Y6644D02*
X796577D01*
X809532D02*
X815420D01*
X835048D02*
X840740D01*
X854284D02*
X866453D01*
X894129D02*
X913168D01*
X939666D02*
X945358D01*
X791277Y6448D02*
X795988D01*
X810317D02*
X814831D01*
X835637D02*
X840152D01*
X854480D02*
X866257D01*
X894718D02*
X912579D01*
X940255D02*
X944769D01*
X792455Y6252D02*
X794810D01*
X811298D02*
X813850D01*
X836618D02*
X838974D01*
X854676D02*
X866061D01*
X895895D02*
X911598D01*
X941433D02*
X943592D01*
X855069Y6056D02*
X865864D01*
X855265Y5859D02*
X865668D01*
X855461Y5663D02*
X865275D01*
X855854Y5467D02*
X864883D01*
X856246Y5271D02*
X864490D01*
X856639Y5074D02*
X864098D01*
X857032Y4878D02*
X863705D01*
X857620Y4682D02*
X863116D01*
X858406Y4485D02*
X862527D01*
X859387Y4289D02*
X861350D01*
D12*
X120426Y57288D02*
Y387288D01*
X400426D01*
Y57288D02*
Y387288D01*
X120426Y57288D02*
X400426D01*
D13*
X98726Y295118D02*
Y323118D01*
X88726Y295118D02*
X98726D01*
X88726D02*
Y323118D01*
X98726D01*
X541656Y269876D02*
Y285876D01*
X557656Y269876D02*
Y285876D01*
D14*
X593150Y25491D02*
X586486D01*
Y20492D01*
X589818D01*
X586486D01*
Y15494D01*
X598149Y22159D02*
X601481D01*
X603147Y20492D01*
Y15494D01*
X598149D01*
X596483Y17160D01*
X598149Y18826D01*
X603147D01*
X608146Y23825D02*
Y22159D01*
X606480D01*
X609812D01*
X608146D01*
Y17160D01*
X609812Y15494D01*
X614810D02*
X618143D01*
X616476D01*
Y22159D01*
X614810D01*
X623141Y25491D02*
Y15494D01*
Y20492D01*
X624807Y22159D01*
X628139D01*
X629805Y20492D01*
Y15494D01*
X643134Y25491D02*
Y23825D01*
X646467Y20492D01*
X649799Y23825D01*
Y25491D01*
X646467Y20492D02*
Y15494D01*
X653131Y22159D02*
Y17160D01*
X654797Y15494D01*
X659796D01*
Y22159D01*
X669792D02*
X664794D01*
X663128Y20492D01*
Y17160D01*
X664794Y15494D01*
X669792D01*
X678123D02*
X674791D01*
X673125Y17160D01*
Y20492D01*
X674791Y22159D01*
X678123D01*
X679789Y20492D01*
Y18826D01*
X673125D01*
X683121Y15494D02*
X686454D01*
X684788D01*
Y25491D01*
X683121D01*
X701449D02*
Y23825D01*
X704781Y20492D01*
X708113Y23825D01*
Y25491D01*
X704781Y20492D02*
Y15494D01*
X711446Y25491D02*
X714778D01*
X713112D01*
Y15494D01*
X711446D01*
X714778D01*
X719776Y25491D02*
Y15494D01*
X726441D01*
X729773D02*
Y25491D01*
X733105Y22159D01*
X736438Y25491D01*
Y15494D01*
X739770D02*
Y22159D01*
X743102Y25491D01*
X746434Y22159D01*
Y15494D01*
Y20492D01*
X739770D01*
X749767Y25491D02*
X756431D01*
Y23825D01*
X749767Y17160D01*
Y15494D01*
X756431D01*
X117963Y104749D02*
Y101416D01*
Y103082D01*
X107966D01*
Y104749D01*
Y101416D01*
Y96418D02*
X117963D01*
X107966Y89753D01*
X117963D01*
X107966Y86421D02*
X117963D01*
Y81423D01*
X116297Y79757D01*
X112965D01*
X111298Y81423D01*
Y86421D01*
X117963Y76424D02*
X109632D01*
X107966Y74758D01*
Y71426D01*
X109632Y69760D01*
X117963D01*
Y66428D02*
Y59763D01*
Y63095D01*
X107966D01*
X402889Y334827D02*
Y331494D01*
X404556Y329828D01*
X411220D01*
X412886Y331494D01*
Y334827D01*
X411220Y336493D01*
X404556D01*
X402889Y334827D01*
Y339825D02*
X411220D01*
X412886Y341491D01*
Y344823D01*
X411220Y346489D01*
X402889D01*
Y349822D02*
Y356486D01*
Y353154D01*
X412886D01*
Y359818D02*
X402889D01*
Y364817D01*
X404556Y366483D01*
X407888D01*
X409554Y364817D01*
Y359818D01*
X402889Y369815D02*
X411220D01*
X412886Y371481D01*
Y374814D01*
X411220Y376480D01*
X402889D01*
Y379812D02*
Y386477D01*
Y383144D01*
X412886D01*
X439154Y289270D02*
X441693Y286731D01*
Y281652D01*
X444232Y279113D01*
X440154Y238270D02*
X442693Y235731D01*
Y230652D01*
X445232Y228113D01*
X107950Y412237D02*
X118107D01*
X113028D01*
Y397002D01*
X123185D02*
X128263D01*
X125724D01*
Y412237D01*
X123185Y409698D01*
X90678Y331216D02*
Y346451D01*
X98295D01*
X100835Y343912D01*
Y338834D01*
X98295Y336294D01*
X90678D01*
X95756D02*
X100835Y331216D01*
X105913D02*
X110991D01*
X108452D01*
Y346451D01*
X105913Y343912D01*
X791207Y370073D02*
X786128D01*
X788668D01*
Y357377D01*
X786128Y354838D01*
X783589D01*
X781050Y357377D01*
X806442Y354838D02*
X796285D01*
X806442Y364995D01*
Y367534D01*
X803903Y370073D01*
X798824D01*
X796285Y367534D01*
X-33023Y368803D02*
X-38102D01*
X-35563D01*
Y356107D01*
X-38102Y353568D01*
X-40641D01*
X-43180Y356107D01*
X-27945Y353568D02*
X-22867D01*
X-25406D01*
Y368803D01*
X-27945Y366264D01*
X552955Y328163D02*
X542798D01*
Y320546D01*
X547876D01*
X542798D01*
Y312928D01*
X558033D02*
X563111D01*
X560572D01*
Y328163D01*
X558033Y325624D01*
X717550Y314447D02*
Y299212D01*
X725167D01*
X727707Y301751D01*
Y311908D01*
X725167Y314447D01*
X717550D01*
X732785Y299212D02*
X737863D01*
X735324D01*
Y314447D01*
X732785Y311908D01*
X583689Y332228D02*
X581149Y334767D01*
X576071D01*
X573532Y332228D01*
Y322071D01*
X576071Y319532D01*
X581149D01*
X583689Y322071D01*
X588767Y319532D02*
X593845D01*
X591306D01*
Y334767D01*
X588767Y332228D01*
X416560Y324099D02*
Y308864D01*
X424178D01*
X426717Y311403D01*
Y313942D01*
X424178Y316481D01*
X416560D01*
X424178D01*
X426717Y319021D01*
Y321560D01*
X424178Y324099D01*
X416560D01*
X431795Y308864D02*
Y324099D01*
X439413D01*
X441952Y321560D01*
Y316481D01*
X439413Y313942D01*
X431795D01*
X436873D02*
X441952Y308864D01*
X447030D02*
X452108D01*
X449569D01*
Y324099D01*
X447030Y321560D01*
D15*
X735076Y263048D02*
D03*
M02*
